<svg width="49" height="60" viewBox="0 0 49 60" fill="none" xmlns="http://www.w3.org/2000/svg">
<path d="M46.138 28.1644C46.138 28.1644 43.7798 27.7356 40.564 27.95C40.6712 27.95 40.6712 27.95 40.7784 27.95C42.6007 23.2336 41.7431 17.7669 41.7431 17.7669C41.7431 17.7669 37.9915 17.231 34.0254 17.9813L33.7038 17.6597C33.7038 17.5525 33.7038 17.5525 33.7038 17.4453C33.7038 8.97727 24.1639 2.11707 24.1639 2.11707C24.1639 2.11707 21.5913 4.0465 19.0187 7.04784C20.5194 5.54717 22.3416 4.36807 24.3782 3.61774L24.4854 28.0572C24.4854 28.0572 23.5207 26.6637 22.1272 24.8415C23.6279 29.2363 22.556 34.3815 22.556 34.3815C20.9481 23.7696 8.19245 19.6963 8.19245 19.6963C12.5873 18.7316 15.6958 18.946 17.8396 20.0179C16.6605 18.946 15.5886 18.1957 14.7311 18.1957C14.3023 18.1957 14.0879 17.9813 13.8736 17.6597L13.4448 17.7669C9.80031 17.231 6.58459 17.7669 6.58459 17.7669C6.58459 17.7669 5.94144 21.733 6.90616 25.8062L7.22773 28.0572C4.33358 27.95 2.18977 28.2716 2.18977 28.2716C2.18977 28.2716 0.367527 39.8482 6.26302 45.8509C12.1585 51.8536 23.8423 49.9241 23.8423 49.9241C23.8423 49.9241 24.1639 47.7803 24.0567 44.8862C23.9495 47.7803 24.2711 49.9241 24.2711 49.9241C24.2711 49.9241 35.8477 51.7464 41.8503 45.8509C47.853 39.9554 46.138 28.1644 46.138 28.1644ZM22.9848 48.5306C19.9834 32.5592 3.58325 29.6651 3.58325 29.6651C26.6293 25.3775 22.9848 48.5306 22.9848 48.5306ZM40.564 18.8388C26.3077 24.5199 25.5573 34.1671 25.5573 34.1671C22.8776 13.3721 40.564 18.8388 40.564 18.8388ZM25.2358 47.6731C24.4854 22.9121 45.1732 29.6651 45.1732 29.6651C28.4515 33.3096 25.2358 47.6731 25.2358 47.6731Z" fill="#F39200"/>
<path d="M19.7691 52.0679C15.4814 52.0679 9.15719 51.3175 4.97676 47.1371C-1.66907 40.4913 0.260365 28.3787 0.260365 27.8428C0.367556 26.9852 1.0107 26.3421 1.86823 26.2349C2.40418 26.1277 14.5167 24.3055 21.1625 30.9513C27.8084 37.5971 25.8789 49.7097 25.8789 50.2456C25.7718 51.1032 25.1286 51.7463 24.2711 51.8535C24.0567 51.8535 22.2345 52.0679 19.7691 52.0679ZM4.01204 29.9866C3.79766 33.0951 3.69047 40.3841 7.76371 44.3501C11.7298 48.3162 19.0187 48.3162 22.1273 48.1018C22.3417 44.9933 22.4488 37.7043 18.3756 33.7383C14.3023 29.665 7.12057 29.665 4.01204 29.9866Z" fill="#231F20"/>
<path d="M28.6659 52.0678C26.2006 52.0678 24.3783 51.7463 24.1639 51.7463C23.3064 51.6391 22.6633 50.9959 22.5561 50.1384C22.4489 49.6024 20.6266 37.4899 27.2725 30.8441C33.9183 24.1982 46.0308 26.1277 46.5668 26.1277C47.4243 26.2349 48.0675 26.878 48.1747 27.7355C48.2818 28.2715 50.1041 40.384 43.4583 47.0299C39.2778 51.3175 32.8464 52.0678 28.6659 52.0678ZM26.2006 47.9946C29.3091 48.209 36.5981 48.3162 40.5641 44.2429C44.5302 40.2768 44.5302 32.9879 44.3158 29.8793C41.2073 29.665 33.9183 29.5578 29.9522 33.631C25.9862 37.7043 25.9862 44.886 26.2006 47.9946Z" fill="#231F20"/>
<path d="M26.4149 37.1683C25.0214 37.0611 24.1639 36.954 24.0567 36.954C23.1992 36.8468 22.556 36.2036 22.4488 35.3461C22.3416 34.9173 20.841 25.0558 26.3077 19.5891C31.7744 14.1223 41.636 15.7302 42.0647 15.7302C42.9223 15.8374 43.5654 16.4805 43.6726 17.3381C43.6726 17.5524 44.6373 23.4479 42.7079 28.5931C42.3863 29.3434 41.7432 29.8794 40.8856 29.8794C37.5627 29.9866 32.8463 30.7369 29.9522 33.631C29.309 34.2742 28.6659 35.1317 28.1299 36.0964C27.8084 36.7396 27.1652 37.1683 26.4149 37.1683ZM38.3131 19.3747C35.5261 19.3747 31.4528 19.8034 29.0947 22.2688C26.6293 24.7342 26.0933 28.9147 26.2005 31.916C26.5221 31.4872 26.8436 31.1657 27.1652 30.7369C30.5953 27.3068 35.4189 26.2349 39.385 25.9133C40.0281 23.4479 40.0281 20.9825 39.9209 19.3747C39.4921 19.4819 38.9562 19.3747 38.3131 19.3747Z" fill="#231F20"/>
<path d="M21.9129 37.1683C21.1626 37.1683 20.5194 36.7396 20.1979 36.0964C19.6619 35.1317 19.1259 34.2742 18.3756 33.631C15.4815 30.7369 10.8723 29.9866 7.44216 29.8794C6.69183 29.8794 5.94149 29.3434 5.61992 28.5931C3.69049 23.4479 4.54801 17.6596 4.65521 17.3381C4.7624 16.4805 5.40554 15.8374 6.26307 15.7302C6.69183 15.623 16.5534 14.1223 22.0201 19.5891C27.4868 25.0558 25.879 34.9173 25.879 35.3461C25.7718 36.2036 25.1286 36.8468 24.2711 36.954C24.2711 36.954 23.3064 37.0611 21.9129 37.1683ZM9.05002 26.0205C12.9089 26.3421 17.8397 27.5212 21.2698 30.8441C21.5913 31.1657 21.9129 31.5944 22.2345 32.0232C22.2345 29.2362 21.9129 24.9486 19.3403 22.376C16.339 19.3747 11.0866 19.3747 8.51407 19.4819C8.40688 20.9825 8.40688 23.5551 9.05002 26.0205Z" fill="#231F20"/>
<path d="M24.1639 34.5958C23.7351 34.5958 23.4135 34.4886 23.0919 34.2742C22.556 33.8455 22.1272 33.2023 22.2344 32.5592C22.3416 29.8794 22.1272 25.0558 19.3403 22.3761C18.1612 21.197 16.4461 20.3394 14.3023 19.9107C13.4448 19.6963 12.8016 18.946 12.8016 18.0884V17.874C12.8016 17.6597 12.8016 17.5525 12.8016 17.3381C12.8016 8.0125 22.7704 0.723537 23.0919 0.401965C23.7351 -0.133988 24.6998 -0.133988 25.4501 0.401965C25.8789 0.723537 35.7404 8.0125 35.7404 17.3381C35.7404 17.5525 35.7404 17.6597 35.7404 17.874V18.0884C35.7404 18.946 35.0973 19.6963 34.2398 19.9107C32.096 20.3394 30.3809 21.197 29.2018 22.3761C26.4149 25.163 26.2005 29.9866 26.3077 32.5592C26.3077 33.2023 25.9861 33.8455 25.5573 34.2742C25.0214 34.4886 24.5926 34.5958 24.1639 34.5958ZM16.6605 16.3734C18.8043 17.0165 20.6266 18.0884 22.02 19.4819C22.8776 20.3394 23.6279 21.3041 24.1639 22.3761C24.6998 21.3041 25.4501 20.3394 26.3077 19.4819C27.7011 18.0884 29.5234 17.0165 31.6672 16.3734C31.1312 11.0138 26.4149 6.40464 24.1639 4.47521C21.9128 6.40464 17.1965 11.121 16.6605 16.3734Z" fill="#231F20"/>
<path d="M24.3782 60C23.3063 60 22.4487 59.1424 22.4487 58.0705V35.0245C22.4487 33.9526 23.3063 33.0951 24.3782 33.0951C25.4501 33.0951 26.3076 33.9526 26.3076 35.0245V58.0705C26.4148 59.0352 25.4501 60 24.3782 60Z" fill="#231F20"/>
<path d="M24.1639 27.7356C23.8423 27.7356 23.5208 27.414 23.5208 27.0925V25.8062C23.5208 25.4846 23.8423 25.163 24.1639 25.163C24.4855 25.163 24.807 25.4846 24.807 25.8062V27.0925C24.807 27.414 24.5927 27.7356 24.1639 27.7356ZM24.1639 23.7696C23.8423 23.7696 23.5208 23.448 23.5208 23.1264C23.5208 22.8048 23.8423 22.4833 24.1639 22.4833C24.4855 22.4833 24.807 22.8048 24.807 23.1264C24.807 23.448 24.5927 23.7696 24.1639 23.7696ZM24.1639 19.8035C23.8423 19.8035 23.5208 19.4819 23.5208 19.1604V17.8741C23.5208 17.5525 23.8423 17.2309 24.1639 17.2309C24.4855 17.2309 24.807 17.5525 24.807 17.8741V19.1604C24.807 19.4819 24.5927 19.8035 24.1639 19.8035ZM24.1639 15.8374C23.8423 15.8374 23.5208 15.5159 23.5208 15.1943C23.5208 14.8727 23.8423 14.5512 24.1639 14.5512C24.4855 14.5512 24.807 14.8727 24.807 15.1943C24.807 15.6231 24.5927 15.8374 24.1639 15.8374ZM24.1639 11.8714C23.8423 11.8714 23.5208 11.5498 23.5208 11.2282V9.94195C23.5208 9.62038 23.8423 9.29881 24.1639 9.29881C24.4855 9.29881 24.807 9.62038 24.807 9.94195V11.2282C24.807 11.657 24.5927 11.8714 24.1639 11.8714ZM24.1639 7.90533C23.8423 7.90533 23.5208 7.58376 23.5208 7.26219C23.5208 6.94062 23.8423 6.61904 24.1639 6.61904C24.4855 6.61904 24.807 6.94062 24.807 7.26219C24.807 7.69095 24.5927 7.90533 24.1639 7.90533ZM24.1639 3.93928C23.8423 3.93928 23.5208 3.6177 23.5208 3.29613V2.00984C23.5208 1.68827 23.8423 1.3667 24.1639 1.3667C24.4855 1.3667 24.807 1.68827 24.807 2.00984V3.29613C24.807 3.72489 24.5927 3.93928 24.1639 3.93928Z" fill="#231F20"/>
</svg>
