<svg width="261" height="70" viewBox="0 0 261 70" fill="none" xmlns="http://www.w3.org/2000/svg">
<path d="M72.4 36.95L75.364 37.106L78.406 36.95C79.03 36.95 79.5413 37.1493 79.94 37.548C80.3387 37.9467 80.538 38.4493 80.538 39.056C80.538 41.8987 79.7753 44.1693 78.25 45.868C76.742 47.5493 74.766 48.39 72.322 48.39C69.878 48.39 67.824 47.402 66.16 45.426C64.496 43.45 63.664 41.0493 63.664 38.224C63.664 35.3987 64.522 33.0067 66.238 31.048C67.954 29.0893 70.1207 28.11 72.738 28.11C74.4193 28.11 75.9447 28.474 77.314 29.202C78.6833 29.93 79.368 30.7187 79.368 31.568C79.368 32.0533 79.212 32.4433 78.9 32.738C78.588 33.0153 78.1893 33.154 77.704 33.154C77.2187 33.154 76.7593 33.0153 76.326 32.738C75.8927 32.4433 75.39 32.1487 74.818 31.854C74.246 31.5593 73.5527 31.412 72.738 31.412C71.178 31.412 69.8867 32.0793 68.864 33.414C67.8587 34.7487 67.356 36.3433 67.356 38.198C67.356 40.0527 67.8327 41.6733 68.786 43.06C69.7567 44.4293 70.9787 45.114 72.452 45.114C73.5613 45.114 74.506 44.698 75.286 43.866C76.066 43.0167 76.534 41.8293 76.69 40.304C76.4993 40.2867 76.0313 40.278 75.286 40.278L72.4 40.408C71.7587 40.408 71.2387 40.252 70.84 39.94C70.4413 39.6107 70.242 39.186 70.242 38.666C70.242 38.1287 70.4413 37.7127 70.84 37.418C71.2387 37.106 71.7587 36.95 72.4 36.95ZM90.7723 44.828L94.3343 44.672C94.9929 44.672 95.5129 44.828 95.8943 45.14C96.2929 45.4347 96.4923 45.8507 96.4923 46.388C96.4923 46.9253 96.2929 47.3587 95.8943 47.688C95.5129 48 94.9929 48.156 94.3343 48.156L90.7723 48L86.8463 48.156C86.2049 48.156 85.6676 47.948 85.2343 47.532C84.8183 47.116 84.6103 46.5613 84.6103 45.868L84.7663 38.12L84.5583 31.074C84.5583 29.1847 85.2169 28.24 86.5343 28.24C87.8516 28.24 88.5103 29.1847 88.5103 31.074L88.3023 38.12C88.3023 39.004 88.3629 41.2227 88.4843 44.776C89.3856 44.8107 90.1483 44.828 90.7723 44.828ZM108.055 45.114C109.598 45.114 110.88 44.4207 111.903 43.034C112.926 41.6473 113.437 40.044 113.437 38.224C113.437 36.3867 112.926 34.792 111.903 33.44C110.898 32.0707 109.615 31.386 108.055 31.386C106.512 31.386 105.23 32.0707 104.207 33.44C103.202 34.792 102.699 36.3867 102.699 38.224C102.699 40.044 103.21 41.6473 104.233 43.034C105.256 44.4207 106.53 45.114 108.055 45.114ZM108.081 28.11C110.664 28.11 112.813 29.098 114.529 31.074C116.262 33.0327 117.129 35.4247 117.129 38.25C117.129 41.058 116.262 43.45 114.529 45.426C112.796 47.402 110.638 48.39 108.055 48.39C105.49 48.39 103.34 47.402 101.607 45.426C99.8738 43.45 99.0071 41.058 99.0071 38.25C99.0071 35.4247 99.8738 33.0327 101.607 31.074C103.358 29.098 105.516 28.11 108.081 28.11ZM135.829 31.048L135.569 41.344C135.569 43.2853 134.945 44.9493 133.697 46.336C132.467 47.7053 130.707 48.39 128.419 48.39C126.131 48.39 124.363 47.7053 123.115 46.336C121.885 44.9667 121.269 43.3113 121.269 41.37L121.009 31.074C121.009 29.1847 121.668 28.24 122.985 28.24C124.303 28.24 124.961 29.1847 124.961 31.074L124.779 39.42C124.779 42.176 125.386 43.9267 126.599 44.672C127.102 44.9667 127.709 45.114 128.419 45.114C129.147 45.114 129.754 44.9667 130.239 44.672C130.742 44.36 131.115 43.9267 131.357 43.372C131.825 42.332 132.059 41.006 132.059 39.394L131.877 31.048C131.877 29.1587 132.536 28.214 133.853 28.214C135.171 28.214 135.829 29.1587 135.829 31.048ZM158.648 37.808L160.39 37.86C162.661 37.86 163.796 37.3053 163.796 36.196C163.796 35.7973 163.649 35.4507 163.354 35.156C163.059 34.8613 162.73 34.6447 162.366 34.506C162.002 34.35 161.673 34.142 161.378 33.882C161.083 33.6047 160.936 33.258 160.936 32.842C160.936 32.426 161.083 32.0707 161.378 31.776C161.673 31.4813 162.115 31.334 162.704 31.334C163.813 31.334 164.871 31.8367 165.876 32.842C166.881 33.83 167.384 35 167.384 36.352C167.384 37.704 166.881 38.7787 165.876 39.576C164.888 40.3733 163.675 40.8327 162.236 40.954C162.375 41.5087 162.444 42.02 162.444 42.488C162.444 44.0307 161.768 45.4 160.416 46.596C159.081 47.792 157.339 48.39 155.19 48.39C153.041 48.39 151.247 47.7487 149.808 46.466C148.369 45.166 147.65 43.5453 147.65 41.604C147.65 40.5987 147.875 39.6193 148.326 38.666C148.777 37.6953 149.392 36.8547 150.172 36.144C149.305 35.1213 148.872 34.012 148.872 32.816C148.872 31.62 149.34 30.5367 150.276 29.566C151.212 28.5953 152.529 28.11 154.228 28.11C155.303 28.11 156.299 28.4047 157.218 28.994C158.154 29.566 158.622 30.1553 158.622 30.762C158.622 31.3513 158.457 31.7847 158.128 32.062C157.816 32.3393 157.461 32.478 157.062 32.478C156.663 32.478 156.178 32.3047 155.606 31.958C155.051 31.594 154.549 31.412 154.098 31.412C153.647 31.412 153.257 31.5507 152.928 31.828C152.616 32.1053 152.46 32.53 152.46 33.102C152.46 33.6567 152.729 34.142 153.266 34.558C153.613 34.5233 153.925 34.506 154.202 34.506C154.878 34.506 155.433 34.6793 155.866 35.026C156.299 35.3553 156.516 35.8147 156.516 36.404C156.516 36.976 156.282 37.4267 155.814 37.756C155.346 38.0853 154.843 38.25 154.306 38.25C153.786 38.25 153.335 38.198 152.954 38.094C151.845 38.874 151.29 39.9747 151.29 41.396C151.29 42.5053 151.645 43.398 152.356 44.074C153.084 44.75 154.029 45.088 155.19 45.088C156.369 45.088 157.279 44.7847 157.92 44.178C158.579 43.5713 158.908 42.9127 158.908 42.202C158.908 41.8727 158.856 41.526 158.752 41.162C158.388 41.4913 157.981 41.656 157.53 41.656C157.097 41.656 156.724 41.4913 156.412 41.162C156.1 40.8327 155.944 40.382 155.944 39.81C155.944 39.238 156.195 38.7613 156.698 38.38C157.201 37.9987 157.851 37.808 158.648 37.808ZM186.632 36.95L189.596 37.106L192.638 36.95C193.262 36.95 193.774 37.1493 194.172 37.548C194.571 37.9467 194.77 38.4493 194.77 39.056C194.77 41.8987 194.008 44.1693 192.482 45.868C190.974 47.5493 188.998 48.39 186.554 48.39C184.11 48.39 182.056 47.402 180.392 45.426C178.728 43.45 177.896 41.0493 177.896 38.224C177.896 35.3987 178.754 33.0067 180.47 31.048C182.186 29.0893 184.353 28.11 186.97 28.11C188.652 28.11 190.177 28.474 191.546 29.202C192.916 29.93 193.6 30.7187 193.6 31.568C193.6 32.0533 193.444 32.4433 193.132 32.738C192.82 33.0153 192.422 33.154 191.936 33.154C191.451 33.154 190.992 33.0153 190.558 32.738C190.125 32.4433 189.622 32.1487 189.05 31.854C188.478 31.5593 187.785 31.412 186.97 31.412C185.41 31.412 184.119 32.0793 183.096 33.414C182.091 34.7487 181.588 36.3433 181.588 38.198C181.588 40.0527 182.065 41.6733 183.018 43.06C183.989 44.4293 185.211 45.114 186.684 45.114C187.794 45.114 188.738 44.698 189.518 43.866C190.298 43.0167 190.766 41.8293 190.922 40.304C190.732 40.2867 190.264 40.278 189.518 40.278L186.632 40.408C185.991 40.408 185.471 40.252 185.072 39.94C184.674 39.6107 184.474 39.186 184.474 38.666C184.474 38.1287 184.674 37.7127 185.072 37.418C185.471 37.106 185.991 36.95 186.632 36.95ZM205.005 44.828L208.567 44.672C209.225 44.672 209.745 44.828 210.127 45.14C210.525 45.4347 210.725 45.8507 210.725 46.388C210.725 46.9253 210.525 47.3587 210.127 47.688C209.745 48 209.225 48.156 208.567 48.156L205.005 48L201.079 48.156C200.437 48.156 199.9 47.948 199.467 47.532C199.051 47.116 198.843 46.5613 198.843 45.868L198.999 38.12L198.791 31.074C198.791 29.1847 199.449 28.24 200.767 28.24C202.084 28.24 202.743 29.1847 202.743 31.074L202.535 38.12C202.535 39.004 202.595 41.2227 202.717 44.776C203.618 44.8107 204.381 44.828 205.005 44.828ZM222.288 45.114C223.83 45.114 225.113 44.4207 226.136 43.034C227.158 41.6473 227.67 40.044 227.67 38.224C227.67 36.3867 227.158 34.792 226.136 33.44C225.13 32.0707 223.848 31.386 222.288 31.386C220.745 31.386 219.462 32.0707 218.44 33.44C217.434 34.792 216.932 36.3867 216.932 38.224C216.932 40.044 217.443 41.6473 218.466 43.034C219.488 44.4207 220.762 45.114 222.288 45.114ZM222.314 28.11C224.896 28.11 227.046 29.098 228.762 31.074C230.495 33.0327 231.362 35.4247 231.362 38.25C231.362 41.058 230.495 43.45 228.762 45.426C227.028 47.402 224.87 48.39 222.288 48.39C219.722 48.39 217.573 47.402 215.84 45.426C214.106 43.45 213.24 41.058 213.24 38.25C213.24 35.4247 214.106 33.0327 215.84 31.074C217.59 29.098 219.748 28.11 222.314 28.11ZM250.062 31.048L249.802 41.344C249.802 43.2853 249.178 44.9493 247.93 46.336C246.699 47.7053 244.94 48.39 242.652 48.39C240.364 48.39 238.596 47.7053 237.348 46.336C236.117 44.9667 235.502 43.3113 235.502 41.37L235.242 31.074C235.242 29.1847 235.901 28.24 237.218 28.24C238.535 28.24 239.194 29.1847 239.194 31.074L239.012 39.42C239.012 42.176 239.619 43.9267 240.832 44.672C241.335 44.9667 241.941 45.114 242.652 45.114C243.38 45.114 243.987 44.9667 244.472 44.672C244.975 44.36 245.347 43.9267 245.59 43.372C246.058 42.332 246.292 41.006 246.292 39.394L246.11 31.048C246.11 29.1587 246.769 28.214 248.086 28.214C249.403 28.214 250.062 29.1587 250.062 31.048Z" fill="#231F20"/>
<path d="M53.8277 32.8584C53.8277 32.8584 51.0764 32.3582 47.3248 32.6083C47.4498 32.6083 47.4498 32.6083 47.5749 32.6083C49.7008 27.1058 48.7004 20.728 48.7004 20.728C48.7004 20.728 44.3234 20.1027 39.6964 20.9781L39.3212 20.6029C39.3212 20.4779 39.3212 20.4779 39.3212 20.3528C39.3212 10.4734 28.1912 2.46985 28.1912 2.46985C28.1912 2.46985 25.1899 4.72085 22.1885 8.22242C23.9393 6.47164 26.0653 5.09602 28.4413 4.22063L28.5664 32.7334C28.5664 32.7334 27.4409 31.1076 25.8152 28.9817C27.5659 34.109 26.3154 40.1117 26.3154 40.1117C24.4395 27.7311 9.5579 22.979 9.5579 22.979C14.6852 21.8535 18.3118 22.1036 20.8129 23.3542C19.4373 22.1036 18.1867 21.2282 17.1863 21.2282C16.6861 21.2282 16.436 20.9781 16.1859 20.6029L15.6856 20.728C11.4337 20.1027 7.68206 20.728 7.68206 20.728C7.68206 20.728 6.93172 25.3551 8.05723 30.1072L8.43239 32.7334C5.05589 32.6083 2.55477 32.9835 2.55477 32.9835C2.55477 32.9835 0.428822 46.4895 7.30689 53.4926C14.185 60.4958 27.816 58.2447 27.816 58.2447C27.816 58.2447 28.1912 55.7436 28.0662 52.3671C27.9411 55.7436 28.3163 58.2447 28.3163 58.2447C28.3163 58.2447 41.8223 60.3707 48.8254 53.4926C55.8286 46.6146 53.8277 32.8584 53.8277 32.8584ZM26.8156 56.619C23.314 37.9857 4.1805 34.6092 4.1805 34.6092C31.0675 29.607 26.8156 56.619 26.8156 56.619ZM47.3248 21.9786C30.6923 28.6065 29.8169 39.8615 29.8169 39.8615C26.6905 15.6007 47.3248 21.9786 47.3248 21.9786ZM29.4418 55.6186C28.5664 26.7307 52.7022 34.6092 52.7022 34.6092C33.1934 38.8611 29.4418 55.6186 29.4418 55.6186Z" fill="#F39200"/>
<path d="M23.0639 60.7459C18.0617 60.7459 10.6834 59.8705 5.80622 54.9934C-1.94725 47.2399 0.303759 33.1086 0.303759 32.4833C0.428815 31.4829 1.17915 30.7325 2.1796 30.6075C2.80488 30.4824 16.9362 28.3565 24.6896 36.1099C32.4431 43.8634 30.1921 57.9947 30.1921 58.62C30.067 59.6204 29.3167 60.3708 28.3163 60.4958C28.0662 60.4958 25.9402 60.7459 23.0639 60.7459ZM4.68071 34.9844C4.4306 38.611 4.30554 47.1148 9.05766 51.7419C13.6847 56.369 22.1885 56.369 25.8151 56.1189C26.0653 52.4922 26.1903 43.9884 21.4382 39.3614C16.6861 34.6093 8.30733 34.6093 4.68071 34.9844Z" fill="#231F20"/>
<path d="M33.4435 60.7459C30.5673 60.7459 28.4413 60.3707 28.1912 60.3707C27.1908 60.2456 26.4404 59.4953 26.3154 58.4948C26.1903 57.8696 24.0644 43.7383 31.8178 35.9848C39.5713 28.2313 53.7026 30.4823 54.3279 30.4823C55.3283 30.6074 56.0787 31.3577 56.2037 32.3582C56.3288 32.9835 58.4547 47.1148 50.7012 54.8682C45.8241 59.8705 38.3207 60.7459 33.4435 60.7459ZM30.5673 55.9937C34.1939 56.2438 42.6977 56.3689 47.3247 51.6168C51.9518 46.9897 51.9518 38.4859 51.7017 34.8593C48.0751 34.6092 39.5713 34.4841 34.9442 39.2363C30.3171 43.9884 30.3171 52.3671 30.5673 55.9937Z" fill="#231F20"/>
<path d="M30.8173 43.3631C29.1916 43.238 28.1911 43.113 28.0661 43.113C27.0656 42.9879 26.3153 42.2376 26.1902 41.2371C26.0652 40.7369 24.3144 29.2318 30.6922 22.8539C37.0701 16.4761 48.5752 18.3519 49.0755 18.3519C50.0759 18.477 50.8262 19.2273 50.9513 20.2278C50.9513 20.4779 52.0768 27.3559 49.8258 33.3586C49.4506 34.234 48.7003 34.8593 47.6998 34.8593C43.8231 34.9843 38.3207 35.8597 34.9441 39.2362C34.1938 39.9866 33.4435 40.987 32.8182 42.1125C32.443 42.8629 31.6927 43.3631 30.8173 43.3631ZM44.6985 22.6038C41.447 22.6038 36.6949 23.104 33.9437 25.9803C31.0674 28.8566 30.4421 33.7338 30.5672 37.2354C30.9424 36.7351 31.3175 36.36 31.6927 35.8597C35.6945 31.8579 41.322 30.6074 45.9491 30.2322C46.6994 27.3559 46.6994 24.4797 46.5743 22.6038C46.0741 22.7289 45.4488 22.6038 44.6985 22.6038Z" fill="#231F20"/>
<path d="M25.5651 43.3631C24.6897 43.3631 23.9393 42.8629 23.5642 42.1126C22.9389 40.9871 22.3136 39.9866 21.4382 39.2363C18.0617 35.8598 12.6843 34.9844 8.68252 34.8593C7.80713 34.8593 6.93174 34.2341 6.55657 33.3587C4.30557 27.356 5.30602 20.603 5.43107 20.2278C5.55613 19.2274 6.30646 18.477 7.30691 18.352C7.80713 18.2269 19.3123 16.4761 25.6901 22.854C32.068 29.2318 30.1921 40.737 30.1921 41.2372C30.0671 42.2376 29.3167 42.988 28.3163 43.113C28.3163 43.113 27.1908 43.2381 25.5651 43.3631ZM10.5584 30.3573C15.0604 30.7325 20.8129 32.1081 24.8147 35.9849C25.1899 36.36 25.5651 36.8602 25.9402 37.3605C25.9402 34.109 25.5651 29.1068 22.5637 26.1054C19.0622 22.6039 12.9344 22.6039 9.93308 22.7289C9.80802 24.4797 9.80802 27.4811 10.5584 30.3573Z" fill="#231F20"/>
<path d="M28.1912 40.3618C27.691 40.3618 27.3158 40.2367 26.9407 39.9866C26.3154 39.4864 25.8152 38.736 25.9402 37.9857C26.0653 34.8593 25.8152 29.2318 22.5637 26.1054C21.1881 24.7298 19.1872 23.7293 16.6861 23.2291C15.6856 22.979 14.9353 22.1036 14.9353 21.1032V20.8531C14.9353 20.6029 14.9353 20.4779 14.9353 20.2278C14.9353 9.34792 26.5655 0.844127 26.9407 0.468959C27.691 -0.15632 28.8165 -0.15632 29.6919 0.468959C30.1921 0.844127 41.6973 9.34792 41.6973 20.2278C41.6973 20.4779 41.6973 20.6029 41.6973 20.8531V21.1032C41.6973 22.1036 40.9469 22.979 39.9465 23.2291C37.4454 23.7293 35.4445 24.7298 34.0688 26.1054C30.8174 29.3569 30.5673 34.9844 30.6923 37.9857C30.6923 38.736 30.3172 39.4864 29.8169 39.9866C29.1917 40.2367 28.6914 40.3618 28.1912 40.3618ZM19.4373 19.1023C21.9384 19.8526 24.0644 21.1032 25.6901 22.7289C26.6906 23.7293 27.5659 24.8548 28.1912 26.1054C28.8165 24.8548 29.6919 23.7293 30.6923 22.7289C32.3181 21.1032 34.444 19.8526 36.9451 19.1023C36.3199 12.8495 30.8174 7.47209 28.1912 5.22108C25.5651 7.47209 20.0626 12.9745 19.4373 19.1023Z" fill="#231F20"/>
<path d="M28.4412 70C27.1906 70 26.1902 68.9995 26.1902 67.749V40.862C26.1902 39.6114 27.1906 38.611 28.4412 38.611C29.6917 38.611 30.6922 39.6114 30.6922 40.862V67.749C30.8173 68.8745 29.6917 70 28.4412 70Z" fill="#231F20"/>
<path d="M28.1913 32.3582C27.8161 32.3582 27.4409 31.983 27.4409 31.6079V30.1072C27.4409 29.732 27.8161 29.3569 28.1913 29.3569C28.5664 29.3569 28.9416 29.732 28.9416 30.1072V31.6079C28.9416 31.983 28.6915 32.3582 28.1913 32.3582ZM28.1913 27.7311C27.8161 27.7311 27.4409 27.356 27.4409 26.9808C27.4409 26.6056 27.8161 26.2305 28.1913 26.2305C28.5664 26.2305 28.9416 26.6056 28.9416 26.9808C28.9416 27.356 28.6915 27.7311 28.1913 27.7311ZM28.1913 23.1041C27.8161 23.1041 27.4409 22.7289 27.4409 22.3537V20.8531C27.4409 20.4779 27.8161 20.1027 28.1913 20.1027C28.5664 20.1027 28.9416 20.4779 28.9416 20.8531V22.3537C28.9416 22.7289 28.6915 23.1041 28.1913 23.1041ZM28.1913 18.477C27.8161 18.477 27.4409 18.1018 27.4409 17.7267C27.4409 17.3515 27.8161 16.9763 28.1913 16.9763C28.5664 16.9763 28.9416 17.3515 28.9416 17.7267C28.9416 18.2269 28.6915 18.477 28.1913 18.477ZM28.1913 13.85C27.8161 13.85 27.4409 13.4748 27.4409 13.0996V11.5989C27.4409 11.2238 27.8161 10.8486 28.1913 10.8486C28.5664 10.8486 28.9416 11.2238 28.9416 11.5989V13.0996C28.9416 13.5998 28.6915 13.85 28.1913 13.85ZM28.1913 9.22289C27.8161 9.22289 27.4409 8.84772 27.4409 8.47255C27.4409 8.09738 27.8161 7.72222 28.1913 7.72222C28.5664 7.72222 28.9416 8.09738 28.9416 8.47255C28.9416 8.97278 28.6915 9.22289 28.1913 9.22289ZM28.1913 4.59582C27.8161 4.59582 27.4409 4.22065 27.4409 3.84549V2.34482C27.4409 1.96965 27.8161 1.59448 28.1913 1.59448C28.5664 1.59448 28.9416 1.96965 28.9416 2.34482V3.84549C28.9416 4.34571 28.6915 4.59582 28.1913 4.59582Z" fill="#231F20"/>
</svg>
