<svg width="234" height="91" viewBox="0 0 234 91" fill="none" xmlns="http://www.w3.org/2000/svg">
<path d="M148.674 32.7645C148.674 32.7645 145.93 32.2657 142.189 32.5151C142.314 32.5151 142.314 32.5151 142.439 32.5151C144.559 27.0284 143.561 20.6687 143.561 20.6687C143.561 20.6687 139.197 20.0453 134.583 20.9181L134.209 20.5441C134.209 20.4194 134.209 20.4194 134.209 20.2947C134.209 10.4435 123.111 2.46277 123.111 2.46277C123.111 2.46277 120.118 4.70734 117.125 8.1989C118.871 6.45312 120.991 5.08144 123.36 4.20855L123.485 32.6398C123.485 32.6398 122.362 31.0187 120.741 28.8988C122.487 34.0115 121.24 39.997 121.24 39.997C119.37 27.6519 104.531 22.9133 104.531 22.9133C109.643 21.791 113.259 22.0404 115.753 23.2874C114.382 22.0404 113.135 21.1675 112.137 21.1675C111.638 21.1675 111.389 20.9181 111.14 20.5441L110.641 20.6687C106.401 20.0453 102.66 20.6687 102.66 20.6687C102.66 20.6687 101.912 25.2826 103.034 30.0211L103.408 32.6398C100.041 32.5151 97.5474 32.8892 97.5474 32.8892C97.5474 32.8892 95.4275 46.3566 102.286 53.3397C109.144 60.3229 122.737 58.0783 122.737 58.0783C122.737 58.0783 123.111 55.5843 122.986 52.2175C122.861 55.5843 123.235 58.0783 123.235 58.0783C123.235 58.0783 136.703 60.1982 143.686 53.3397C150.669 46.4813 148.674 32.7645 148.674 32.7645ZM121.739 56.4572C118.247 37.8771 99.1685 34.5103 99.1685 34.5103C125.979 29.5223 121.739 56.4572 121.739 56.4572ZM142.189 21.9157C125.605 28.5248 124.732 39.7476 124.732 39.7476C121.614 15.5561 142.189 21.9157 142.189 21.9157ZM124.358 55.4596C123.485 26.6543 147.552 34.5103 147.552 34.5103C128.099 38.75 124.358 55.4596 124.358 55.4596Z" fill="#FEB913"/>
<path d="M117.998 60.5724C113.01 60.5724 105.653 59.6995 100.79 54.8362C93.0583 47.1049 95.3029 33.014 95.3029 32.3905C95.4276 31.3929 96.1758 30.6447 97.1734 30.52C97.7969 30.3953 111.888 28.2754 119.619 36.0068C127.35 43.7381 125.106 57.829 125.106 58.4525C124.981 59.4501 124.233 60.1983 123.235 60.323C122.986 60.323 120.866 60.5724 117.998 60.5724ZM99.6673 34.8845C99.4179 38.5007 99.2932 46.9802 104.032 51.5941C108.646 56.2079 117.125 56.2079 120.741 55.9585C120.991 52.3423 121.115 43.8628 116.377 39.2489C111.638 34.5104 103.284 34.5104 99.6673 34.8845Z" fill="#231F20"/>
<path d="M128.348 60.5723C125.48 60.5723 123.36 60.1982 123.111 60.1982C122.113 60.0735 121.365 59.3253 121.24 58.3278C121.115 57.7043 118.996 43.6133 126.727 35.882C134.458 28.1507 148.549 30.3953 149.173 30.3953C150.17 30.52 150.918 31.2682 151.043 32.2658C151.168 32.8893 153.288 46.9802 145.556 54.7115C140.693 59.6994 133.211 60.5723 128.348 60.5723ZM125.48 55.8338C129.096 56.0832 137.576 56.2079 142.189 51.4693C146.803 46.8555 146.803 38.376 146.554 34.7597C142.938 34.5103 134.458 34.3856 129.844 39.1242C125.23 43.8627 125.23 52.2175 125.48 55.8338Z" fill="#231F20"/>
<path d="M125.729 43.2392C124.108 43.1145 123.111 42.9899 122.986 42.9899C121.988 42.8652 121.24 42.117 121.115 41.1194C120.991 40.6206 119.245 29.1483 125.605 22.7887C131.964 16.4291 143.437 18.2995 143.935 18.2995C144.933 18.4242 145.681 19.1724 145.806 20.17C145.806 20.4194 146.928 27.2778 144.684 33.2634C144.309 34.1363 143.561 34.7598 142.564 34.7598C138.698 34.8844 133.211 35.7573 129.844 39.1242C129.096 39.8724 128.348 40.87 127.725 41.9923C127.35 42.7405 126.602 43.2392 125.729 43.2392ZM139.571 22.5393C136.329 22.5393 131.59 23.0381 128.847 25.9062C125.979 28.7742 125.355 33.6375 125.48 37.129C125.854 36.6302 126.228 36.2561 126.602 35.7573C130.593 31.767 136.204 30.52 140.818 30.1459C141.566 27.2778 141.566 24.4098 141.441 22.5393C140.943 22.664 140.319 22.5393 139.571 22.5393Z" fill="#231F20"/>
<path d="M120.492 43.2391C119.619 43.2391 118.871 42.7404 118.497 41.9922C117.873 40.8699 117.25 39.8723 116.377 39.1241C113.01 35.7572 107.648 34.8844 103.658 34.7597C102.785 34.7597 101.912 34.1362 101.538 33.2633C99.2932 27.2777 100.291 20.544 100.415 20.1699C100.54 19.1723 101.288 18.4242 102.286 18.2995C102.785 18.1748 114.257 16.429 120.617 22.7886C126.976 29.1482 125.106 40.6205 125.106 41.1193C124.981 42.1169 124.233 42.8651 123.235 42.9898C123.235 42.9898 122.113 43.1145 120.492 43.2391ZM105.528 30.2705C110.017 30.6446 115.753 32.0163 119.744 35.8819C120.118 36.256 120.492 36.7548 120.866 37.2536C120.866 34.0115 120.492 29.0235 117.499 26.0308C114.008 22.5392 107.897 22.5392 104.905 22.6639C104.78 24.4097 104.78 27.4024 105.528 30.2705Z" fill="#231F20"/>
<path d="M123.111 40.2464C122.612 40.2464 122.238 40.1217 121.864 39.8723C121.24 39.3736 120.741 38.6254 120.866 37.8772C120.991 34.7597 120.741 29.1483 117.499 26.0308C116.128 24.6591 114.132 23.6615 111.638 23.1627C110.641 22.9133 109.893 22.0405 109.893 21.0429V20.7935C109.893 20.5441 109.893 20.4194 109.893 20.17C109.893 9.32121 121.49 0.841715 121.864 0.467619C122.612 -0.155873 123.734 -0.155873 124.607 0.467619C125.106 0.841715 136.578 9.32121 136.578 20.17C136.578 20.4194 136.578 20.5441 136.578 20.7935V21.0429C136.578 22.0405 135.83 22.9133 134.832 23.1627C132.338 23.6615 130.343 24.6591 128.971 26.0308C125.729 29.273 125.48 34.8844 125.605 37.8772C125.605 38.6254 125.23 39.3736 124.732 39.8723C124.108 40.1217 123.609 40.2464 123.111 40.2464ZM114.382 19.0477C116.876 19.7959 118.996 21.0429 120.617 22.6639C121.614 23.6615 122.487 24.7838 123.111 26.0308C123.734 24.7838 124.607 23.6615 125.605 22.6639C127.226 21.0429 129.346 19.7959 131.84 19.0477C131.216 12.8128 125.729 7.45074 123.111 5.20616C120.492 7.45074 115.005 12.9375 114.382 19.0477Z" fill="#231F20"/>
<path d="M122.996 74C121.887 74 121 72.8845 121 71.49V41.51C121 40.1155 121.887 39 122.996 39C124.105 39 124.992 40.1155 124.992 41.51V71.49C125.102 72.745 124.105 74 122.996 74Z" fill="#231F20"/>
<path d="M123.111 32.2657C122.737 32.2657 122.362 31.8916 122.362 31.5175V30.0211C122.362 29.647 122.737 29.2729 123.111 29.2729C123.485 29.2729 123.859 29.647 123.859 30.0211V31.5175C123.859 31.8916 123.609 32.2657 123.111 32.2657ZM123.111 27.6518C122.737 27.6518 122.362 27.2777 122.362 26.9036C122.362 26.5295 122.737 26.1554 123.111 26.1554C123.485 26.1554 123.859 26.5295 123.859 26.9036C123.859 27.2777 123.609 27.6518 123.111 27.6518ZM123.111 23.038C122.737 23.038 122.362 22.6639 122.362 22.2898V20.7934C122.362 20.4193 122.737 20.0452 123.111 20.0452C123.485 20.0452 123.859 20.4193 123.859 20.7934V22.2898C123.859 22.6639 123.609 23.038 123.111 23.038ZM123.111 18.4241C122.737 18.4241 122.362 18.05 122.362 17.6759C122.362 17.3019 122.737 16.9278 123.111 16.9278C123.485 16.9278 123.859 17.3019 123.859 17.6759C123.859 18.1747 123.609 18.4241 123.111 18.4241ZM123.111 13.8103C122.737 13.8103 122.362 13.4362 122.362 13.0621V11.5657C122.362 11.1916 122.737 10.8175 123.111 10.8175C123.485 10.8175 123.859 11.1916 123.859 11.5657V13.0621C123.859 13.5609 123.609 13.8103 123.111 13.8103ZM123.111 9.19645C122.737 9.19645 122.362 8.82236 122.362 8.44826C122.362 8.07416 122.737 7.70007 123.111 7.70007C123.485 7.70007 123.859 8.07416 123.859 8.44826C123.859 8.94705 123.609 9.19645 123.111 9.19645ZM123.111 4.58261C122.737 4.58261 122.362 4.20851 122.362 3.83442V2.33803C122.362 1.96394 122.737 1.58984 123.111 1.58984C123.485 1.58984 123.859 1.96394 123.859 2.33803V3.83442C123.859 4.33321 123.609 4.58261 123.111 4.58261Z" fill="#231F20"/>
<path d="M19.1953 77.25L22.6153 77.43L26.1253 77.25C26.8453 77.25 27.4353 77.48 27.8953 77.94C28.3553 78.4 28.5853 78.98 28.5853 79.68C28.5853 82.96 27.7053 85.58 25.9453 87.54C24.2053 89.48 21.9253 90.45 19.1053 90.45C16.2853 90.45 13.9153 89.31 11.9953 87.03C10.0753 84.75 9.11531 81.98 9.11531 78.72C9.11531 75.46 10.1053 72.7 12.0853 70.44C14.0653 68.18 16.5653 67.05 19.5853 67.05C21.5253 67.05 23.2853 67.47 24.8653 68.31C26.4453 69.15 27.2353 70.06 27.2353 71.04C27.2353 71.6 27.0553 72.05 26.6953 72.39C26.3353 72.71 25.8753 72.87 25.3153 72.87C24.7553 72.87 24.2253 72.71 23.7253 72.39C23.2253 72.05 22.6453 71.71 21.9853 71.37C21.3253 71.03 20.5253 70.86 19.5853 70.86C17.7853 70.86 16.2953 71.63 15.1153 73.17C13.9553 74.71 13.3753 76.55 13.3753 78.69C13.3753 80.83 13.9253 82.7 15.0253 84.3C16.1453 85.88 17.5553 86.67 19.2553 86.67C20.5353 86.67 21.6253 86.19 22.5253 85.23C23.4253 84.25 23.9653 82.88 24.1453 81.12C23.9253 81.1 23.3853 81.09 22.5253 81.09L19.1953 81.24C18.4553 81.24 17.8553 81.06 17.3953 80.7C16.9353 80.32 16.7053 79.83 16.7053 79.23C16.7053 78.61 16.9353 78.13 17.3953 77.79C17.8553 77.43 18.4553 77.25 19.1953 77.25ZM40.3941 86.34L44.5041 86.16C45.2641 86.16 45.8641 86.34 46.3041 86.7C46.7641 87.04 46.9941 87.52 46.9941 88.14C46.9941 88.76 46.7641 89.26 46.3041 89.64C45.8641 90 45.2641 90.18 44.5041 90.18L40.3941 90L35.8641 90.18C35.1241 90.18 34.5041 89.94 34.0041 89.46C33.5241 88.98 33.2841 88.34 33.2841 87.54L33.4641 78.6L33.2241 70.47C33.2241 68.29 33.9841 67.2 35.5041 67.2C37.0241 67.2 37.7841 68.29 37.7841 70.47L37.5441 78.6C37.5441 79.62 37.6141 82.18 37.7541 86.28C38.7941 86.32 39.6741 86.34 40.3941 86.34ZM60.3359 86.67C62.1159 86.67 63.5959 85.87 64.7759 84.27C65.9559 82.67 66.5459 80.82 66.5459 78.72C66.5459 76.6 65.9559 74.76 64.7759 73.2C63.6159 71.62 62.1359 70.83 60.3359 70.83C58.5559 70.83 57.0759 71.62 55.8959 73.2C54.7359 74.76 54.1559 76.6 54.1559 78.72C54.1559 80.82 54.7459 82.67 55.9259 84.27C57.1059 85.87 58.5759 86.67 60.3359 86.67ZM60.3659 67.05C63.3459 67.05 65.8259 68.19 67.8059 70.47C69.8059 72.73 70.8059 75.49 70.8059 78.75C70.8059 81.99 69.8059 84.75 67.8059 87.03C65.8059 89.31 63.3159 90.45 60.3359 90.45C57.3759 90.45 54.8959 89.31 52.8959 87.03C50.8959 84.75 49.8959 81.99 49.8959 78.75C49.8959 75.49 50.8959 72.73 52.8959 70.47C54.9159 68.19 57.4059 67.05 60.3659 67.05ZM92.3831 70.44L92.0831 82.32C92.0831 84.56 91.3631 86.48 89.9231 88.08C88.5031 89.66 86.4731 90.45 83.8331 90.45C81.1931 90.45 79.1531 89.66 77.7131 88.08C76.2931 86.5 75.5831 84.59 75.5831 82.35L75.2831 70.47C75.2831 68.29 76.0431 67.2 77.5631 67.2C79.0831 67.2 79.8431 68.29 79.8431 70.47L79.6331 80.1C79.6331 83.28 80.3331 85.3 81.7331 86.16C82.3131 86.5 83.0131 86.67 83.8331 86.67C84.6731 86.67 85.3731 86.5 85.9331 86.16C86.5131 85.8 86.9431 85.3 87.2231 84.66C87.7631 83.46 88.0331 81.93 88.0331 80.07L87.8231 70.44C87.8231 68.26 88.5831 67.17 90.1031 67.17C91.6231 67.17 92.3831 68.26 92.3831 70.44ZM118.712 78.24L120.722 78.3C123.342 78.3 124.652 77.66 124.652 76.38C124.652 75.92 124.482 75.52 124.142 75.18C123.802 74.84 123.422 74.59 123.002 74.43C122.582 74.25 122.202 74.01 121.862 73.71C121.522 73.39 121.352 72.99 121.352 72.51C121.352 72.03 121.522 71.62 121.862 71.28C122.202 70.94 122.712 70.77 123.392 70.77C124.672 70.77 125.892 71.35 127.052 72.51C128.212 73.65 128.792 75 128.792 76.56C128.792 78.12 128.212 79.36 127.052 80.28C125.912 81.2 124.512 81.73 122.852 81.87C123.012 82.51 123.092 83.1 123.092 83.64C123.092 85.42 122.312 87 120.752 88.38C119.212 89.76 117.202 90.45 114.722 90.45C112.242 90.45 110.172 89.71 108.512 88.23C106.852 86.73 106.022 84.86 106.022 82.62C106.022 81.46 106.282 80.33 106.802 79.23C107.322 78.11 108.032 77.14 108.932 76.32C107.932 75.14 107.432 73.86 107.432 72.48C107.432 71.1 107.972 69.85 109.052 68.73C110.132 67.61 111.652 67.05 113.612 67.05C114.852 67.05 116.002 67.39 117.062 68.07C118.142 68.73 118.682 69.41 118.682 70.11C118.682 70.79 118.492 71.29 118.112 71.61C117.752 71.93 117.342 72.09 116.882 72.09C116.422 72.09 115.862 71.89 115.202 71.49C114.562 71.07 113.982 70.86 113.462 70.86C112.942 70.86 112.492 71.02 112.112 71.34C111.752 71.66 111.572 72.15 111.572 72.81C111.572 73.45 111.882 74.01 112.502 74.49C112.902 74.45 113.262 74.43 113.582 74.43C114.362 74.43 115.002 74.63 115.502 75.03C116.002 75.41 116.252 75.94 116.252 76.62C116.252 77.28 115.982 77.8 115.442 78.18C114.902 78.56 114.322 78.75 113.702 78.75C113.102 78.75 112.582 78.69 112.142 78.57C110.862 79.47 110.222 80.74 110.222 82.38C110.222 83.66 110.632 84.69 111.452 85.47C112.292 86.25 113.382 86.64 114.722 86.64C116.082 86.64 117.132 86.29 117.872 85.59C118.632 84.89 119.012 84.13 119.012 83.31C119.012 82.93 118.952 82.53 118.832 82.11C118.412 82.49 117.942 82.68 117.422 82.68C116.922 82.68 116.492 82.49 116.132 82.11C115.772 81.73 115.592 81.21 115.592 80.55C115.592 79.89 115.882 79.34 116.462 78.9C117.042 78.46 117.792 78.24 118.712 78.24ZM151.002 77.25L154.422 77.43L157.932 77.25C158.652 77.25 159.242 77.48 159.702 77.94C160.162 78.4 160.392 78.98 160.392 79.68C160.392 82.96 159.512 85.58 157.752 87.54C156.012 89.48 153.732 90.45 150.912 90.45C148.092 90.45 145.722 89.31 143.802 87.03C141.882 84.75 140.922 81.98 140.922 78.72C140.922 75.46 141.912 72.7 143.892 70.44C145.872 68.18 148.372 67.05 151.392 67.05C153.332 67.05 155.092 67.47 156.672 68.31C158.252 69.15 159.042 70.06 159.042 71.04C159.042 71.6 158.862 72.05 158.502 72.39C158.142 72.71 157.682 72.87 157.122 72.87C156.562 72.87 156.032 72.71 155.532 72.39C155.032 72.05 154.452 71.71 153.792 71.37C153.132 71.03 152.332 70.86 151.392 70.86C149.592 70.86 148.102 71.63 146.922 73.17C145.762 74.71 145.182 76.55 145.182 78.69C145.182 80.83 145.732 82.7 146.832 84.3C147.952 85.88 149.362 86.67 151.062 86.67C152.342 86.67 153.432 86.19 154.332 85.23C155.232 84.25 155.772 82.88 155.952 81.12C155.732 81.1 155.192 81.09 154.332 81.09L151.002 81.24C150.262 81.24 149.662 81.06 149.202 80.7C148.742 80.32 148.512 79.83 148.512 79.23C148.512 78.61 148.742 78.13 149.202 77.79C149.662 77.43 150.262 77.25 151.002 77.25ZM172.201 86.34L176.311 86.16C177.071 86.16 177.671 86.34 178.111 86.7C178.571 87.04 178.801 87.52 178.801 88.14C178.801 88.76 178.571 89.26 178.111 89.64C177.671 90 177.071 90.18 176.311 90.18L172.201 90L167.671 90.18C166.931 90.18 166.311 89.94 165.811 89.46C165.331 88.98 165.091 88.34 165.091 87.54L165.271 78.6L165.031 70.47C165.031 68.29 165.791 67.2 167.311 67.2C168.831 67.2 169.591 68.29 169.591 70.47L169.351 78.6C169.351 79.62 169.421 82.18 169.561 86.28C170.601 86.32 171.481 86.34 172.201 86.34ZM192.143 86.67C193.923 86.67 195.403 85.87 196.583 84.27C197.763 82.67 198.353 80.82 198.353 78.72C198.353 76.6 197.763 74.76 196.583 73.2C195.423 71.62 193.943 70.83 192.143 70.83C190.363 70.83 188.883 71.62 187.703 73.2C186.543 74.76 185.963 76.6 185.963 78.72C185.963 80.82 186.553 82.67 187.732 84.27C188.913 85.87 190.383 86.67 192.143 86.67ZM192.173 67.05C195.153 67.05 197.633 68.19 199.613 70.47C201.613 72.73 202.613 75.49 202.613 78.75C202.613 81.99 201.613 84.75 199.613 87.03C197.613 89.31 195.123 90.45 192.143 90.45C189.183 90.45 186.703 89.31 184.703 87.03C182.703 84.75 181.703 81.99 181.703 78.75C181.703 75.49 182.703 72.73 184.703 70.47C186.722 68.19 189.213 67.05 192.173 67.05ZM224.19 70.44L223.89 82.32C223.89 84.56 223.17 86.48 221.73 88.08C220.31 89.66 218.28 90.45 215.64 90.45C213 90.45 210.96 89.66 209.52 88.08C208.1 86.5 207.39 84.59 207.39 82.35L207.09 70.47C207.09 68.29 207.85 67.2 209.37 67.2C210.89 67.2 211.65 68.29 211.65 70.47L211.44 80.1C211.44 83.28 212.14 85.3 213.54 86.16C214.12 86.5 214.82 86.67 215.64 86.67C216.48 86.67 217.18 86.5 217.74 86.16C218.32 85.8 218.75 85.3 219.03 84.66C219.57 83.46 219.84 81.93 219.84 80.07L219.63 70.44C219.63 68.26 220.39 67.17 221.91 67.17C223.43 67.17 224.19 68.26 224.19 70.44Z" fill="#231F20"/>
</svg>
