<svg width="21" height="20" viewBox="0 0 21 20" fill="none" xmlns="http://www.w3.org/2000/svg">
<path d="M14.9044 16.6094C15.3107 16.2031 15.7794 16 16.3107 16C16.8419 16 17.295 16.2031 17.67 16.6094C18.0763 17.0156 18.2794 17.4844 18.2794 18.0156C18.2794 18.5469 18.0763 19.0156 17.67 19.4219C17.295 19.7969 16.8419 19.9844 16.3107 19.9844C15.7794 19.9844 15.3107 19.7969 14.9044 19.4219C14.4982 19.0156 14.295 18.5469 14.295 18.0156C14.295 17.4844 14.4982 17.0156 14.9044 16.6094ZM0.279419 0.015625H3.56067L4.49817 1.98438H19.3107C19.5919 1.98438 19.8263 2.09375 20.0138 2.3125C20.2013 2.5 20.295 2.73438 20.295 3.01562C20.295 3.04688 20.2482 3.20312 20.1544 3.48438L16.5919 9.95312C16.2169 10.6406 15.6388 10.9844 14.8575 10.9844H7.40442L6.51379 12.625L6.46692 12.7656C6.46692 12.9219 6.54504 13 6.70129 13H18.2794V15.0156H6.27942C5.74817 15.0156 5.27942 14.8125 4.87317 14.4062C4.49817 14 4.31067 13.5312 4.31067 13C4.31067 12.6875 4.38879 12.375 4.54504 12.0625L5.90442 9.57812L2.29504 1.98438H0.279419V0.015625ZM4.87317 16.6094C5.27942 16.2031 5.74817 16 6.27942 16C6.81067 16 7.27942 16.2031 7.68567 16.6094C8.09192 17.0156 8.29504 17.4844 8.29504 18.0156C8.29504 18.5469 8.09192 19.0156 7.68567 19.4219C7.27942 19.7969 6.81067 19.9844 6.27942 19.9844C5.74817 19.9844 5.27942 19.7969 4.87317 19.4219C4.49817 19.0156 4.31067 18.5469 4.31067 18.0156C4.31067 17.4844 4.49817 17.0156 4.87317 16.6094Z" fill="white"/>
</svg>
