<svg width="32" height="32" viewBox="0 0 32 32" fill="none" xmlns="http://www.w3.org/2000/svg">
<path d="M21.5866 2.66669H10.4133C5.55996 2.66669 2.66663 5.56002 2.66663 10.4134V21.5734C2.66663 26.44 5.55996 29.3334 10.4133 29.3334H21.5733C26.4266 29.3334 29.32 26.44 29.32 21.5867V10.4134C29.3333 5.56002 26.44 2.66669 21.5866 2.66669ZM16 21.1734C13.1466 21.1734 10.8266 18.8534 10.8266 16C10.8266 13.1467 13.1466 10.8267 16 10.8267C18.8533 10.8267 21.1733 13.1467 21.1733 16C21.1733 18.8534 18.8533 21.1734 16 21.1734ZM23.8933 9.17335C23.8266 9.33335 23.7333 9.48002 23.6133 9.61335C23.48 9.73335 23.3333 9.82669 23.1733 9.89335C23.0133 9.96002 22.84 10 22.6666 10C22.3066 10 21.9733 9.86669 21.72 9.61335C21.6 9.48002 21.5066 9.33335 21.44 9.17335C21.3733 9.01335 21.3333 8.84002 21.3333 8.66669C21.3333 8.49335 21.3733 8.32002 21.44 8.16002C21.5066 7.98669 21.6 7.85335 21.72 7.72002C22.0266 7.41335 22.4933 7.26669 22.92 7.36002C23.0133 7.37335 23.0933 7.40002 23.1733 7.44002C23.2533 7.46669 23.3333 7.50669 23.4133 7.56002C23.48 7.60002 23.5466 7.66669 23.6133 7.72002C23.7333 7.85335 23.8266 7.98669 23.8933 8.16002C23.96 8.32002 24 8.49335 24 8.66669C24 8.84002 23.96 9.01335 23.8933 9.17335Z" fill="#231F20"/>
</svg>
