<svg width="17" height="17" viewBox="0 0 17 17" fill="none" xmlns="http://www.w3.org/2000/svg">
<path d="M5.01367 10.1063C6.20117 9.82501 7.29492 9.68439 8.29492 9.68439C9.29492 9.68439 10.3887 9.82501 11.5762 10.1063C12.7637 10.3875 13.8418 10.8563 14.8105 11.5125C15.8105 12.1688 16.3105 12.9031 16.3105 13.7156V16.7156H0.279297V13.7156C0.279297 12.9031 0.763672 12.1688 1.73242 11.5125C2.73242 10.8563 3.82617 10.3875 5.01367 10.1063ZM5.48242 1.90314C6.26367 1.09064 7.20117 0.684387 8.29492 0.684387C9.38867 0.684387 10.3262 1.09064 11.1074 1.90314C11.8887 2.68439 12.2793 3.62189 12.2793 4.71564C12.2793 5.80939 11.8887 6.74689 11.1074 7.52814C10.3262 8.30939 9.38867 8.70001 8.29492 8.70001C7.20117 8.70001 6.26367 8.30939 5.48242 7.52814C4.70117 6.74689 4.31055 5.80939 4.31055 4.71564C4.31055 3.62189 4.70117 2.68439 5.48242 1.90314ZM12.373 12.4031C11.0293 11.8719 9.66992 11.6063 8.29492 11.6063C6.91992 11.6063 5.56055 11.8719 4.2168 12.4031C2.87305 12.9031 2.20117 13.3406 2.20117 13.7156V14.7938H14.3887V13.7156C14.3887 13.3406 13.7168 12.9031 12.373 12.4031ZM9.79492 3.21564C9.38867 2.80939 8.88867 2.60626 8.29492 2.60626C7.70117 2.60626 7.20117 2.80939 6.79492 3.21564C6.38867 3.62189 6.18555 4.12189 6.18555 4.71564C6.18555 5.30939 6.38867 5.80939 6.79492 6.21564C7.20117 6.59064 7.70117 6.77814 8.29492 6.77814C8.88867 6.77814 9.38867 6.59064 9.79492 6.21564C10.2012 5.80939 10.4043 5.30939 10.4043 4.71564C10.4043 4.12189 10.2012 3.62189 9.79492 3.21564Z" fill="#231F20"/>
</svg>
