<svg width="64" height="64" viewBox="0 0 64 64" fill="none" xmlns="http://www.w3.org/2000/svg">
<g clip-path="url(#clip0_6_428)">
<path d="M55.813 10.0054C56.3099 9.37313 56.4002 8.53104 56.0487 7.80783C55.6972 7.08462 54.9792 6.63524 54.175 6.63524H46.4034C46.4222 5.1902 45.712 3.8046 44.5152 2.97841L45.1289 1.41602C45.3383 0.883146 45.076 0.281438 44.5431 0.0720216C44.0104 -0.137256 43.4085 0.124825 43.1991 0.657833L42.5761 2.24359C40.6543 2.01109 38.7388 3.09093 37.9981 4.9747L37.3492 6.6351H9.82499C9.02078 6.6351 8.30282 7.08448 7.9513 7.80769C7.59979 8.53091 7.69005 9.37299 8.18684 10.0052L30.9633 38.9934V55.2222C30.9633 58.9189 27.9558 61.9263 24.2592 61.9263H20.9417C20.3692 61.9263 19.905 62.3903 19.905 62.963C19.905 63.5357 20.3692 63.9997 20.9417 63.9997H43.0583C43.6308 63.9997 44.095 63.5357 44.095 62.963C44.095 62.3903 43.6308 61.9263 43.0583 61.9263H39.7408C36.0441 61.9263 33.0367 58.9189 33.0367 55.2222V38.9937L55.813 10.0054ZM37.1514 19.7669C38.2299 19.7669 38.7136 19.974 39.3258 20.2362C40.0228 20.5347 40.8126 20.8728 42.3165 20.8728C43.6416 20.8728 44.4122 20.6103 45.0534 20.3436L32 36.9571L18.9457 20.3449C19.5856 20.6111 20.3549 20.8728 21.6764 20.8728C23.1784 20.8728 23.9673 20.5345 24.6632 20.2359C25.2741 19.9739 25.7566 19.7669 26.8327 19.7669C27.9091 19.7669 28.3917 19.9739 29.0026 20.2359C29.6988 20.5345 30.4876 20.8728 31.9898 20.8728C33.493 20.8728 34.2823 20.5345 34.979 20.2361C35.5905 19.974 36.0737 19.7669 37.1514 19.7669ZM39.9286 5.7315C40.3885 4.56154 41.7154 3.9843 42.886 4.44349C43.7952 4.80081 44.3554 5.6975 44.3293 6.6351H39.5755L39.9286 5.7315ZM9.82499 8.70867L54.1785 8.70604C54.182 8.70922 54.1866 8.71862 54.1827 8.72443L47.1299 17.7007C45.8513 17.7489 45.1311 18.0559 44.4909 18.33C43.8786 18.5921 43.395 18.7993 42.3164 18.7993C41.2377 18.7993 40.7541 18.5923 40.1419 18.33C39.7297 18.1535 39.2835 17.9636 38.6777 17.8374L40.7847 12.4741C40.9941 11.9413 40.7317 11.3396 40.1989 11.1301C39.6659 10.921 39.0642 11.1831 38.8549 11.716L36.4971 17.7176C35.405 17.7991 34.7496 18.0783 34.1622 18.33C33.5505 18.5921 33.0674 18.7992 31.9898 18.7992C30.9134 18.7992 30.4308 18.5923 29.8199 18.3302C29.1237 18.0316 28.3349 17.6934 26.8327 17.6934C25.3306 17.6934 24.5419 18.0316 23.8459 18.3302C23.2351 18.5923 22.7525 18.7992 21.6764 18.7992C20.5997 18.7992 20.1172 18.5923 19.5059 18.33C18.8661 18.0558 18.1463 17.7485 16.8679 17.7006L9.81324 8.72332C9.81351 8.71862 9.81794 8.70922 9.82499 8.70867ZM34.0839 61.9266H29.9162C30.7626 61.2112 31.4725 60.3397 32.0001 59.3557C32.5275 60.3396 33.2374 61.2112 34.0839 61.9266Z" fill="#231F20"/>
<path d="M34.5105 22.7744L31.035 31.621C30.8256 32.1538 31.0879 32.7555 31.6208 32.965C31.7452 33.0139 31.8735 33.037 31.9995 33.037C32.4134 33.037 32.8043 32.7875 32.9646 32.379L36.4401 23.5324C36.6495 22.9995 36.3872 22.3978 35.8543 22.1884C35.3216 21.9794 34.7199 22.2413 34.5105 22.7744Z" fill="#231F20"/>
</g>
<defs>
<clipPath id="clip0_6_428">
<rect width="64" height="64" fill="white"/>
</clipPath>
</defs>
</svg>
