<svg width="64" height="64" viewBox="0 0 64 64" fill="none" xmlns="http://www.w3.org/2000/svg">
<g clip-path="url(#clip0_6_325)">
<path d="M41.6858 26.0867L39.7616 23.0078C39.211 22.1268 38.8558 21.1159 38.7344 20.0842L36.975 5.12864C37.5727 4.58959 37.9492 3.80957 37.9492 2.94325C37.9492 1.32033 36.6288 0 35.0059 0H28.9942C27.3713 0 26.0509 1.32033 26.0509 2.94325C26.0509 3.80957 26.4274 4.58959 27.0251 5.12864L25.2655 20.0842C25.1442 21.1159 24.789 22.1268 24.2384 23.0078L22.3141 26.0867C20.8258 28.468 20.0392 31.211 20.0392 34.0191V59.0528C20.0392 61.7807 22.2585 64 24.9863 64H39.0137C41.7416 64 43.9609 61.7807 43.9609 59.0528V34.0191C43.9609 31.211 43.1742 28.468 41.6858 26.0867ZM28.9942 1.87867H35.0059C35.5929 1.87867 36.0705 2.35623 36.0705 2.94325C36.0705 3.53027 35.5929 4.00783 35.0059 4.00783H28.9942C28.4072 4.00783 27.9296 3.53027 27.9296 2.94325C27.9296 2.35623 28.4072 1.87867 28.9942 1.87867ZM21.9179 45.9648H28.9942C29.5129 45.9648 29.9335 45.5442 29.9335 45.0254C29.9335 44.5067 29.5129 44.0861 28.9942 44.0861H21.9179V41.9569H23.9844C24.5032 41.9569 24.9237 41.5364 24.9237 41.0176C24.9237 40.4988 24.5032 40.0783 23.9844 40.0783H21.9179V35.9452H32C32.5871 35.9452 33.0646 36.4228 33.0646 37.0098V53.0411C33.0646 53.6281 32.5871 54.1057 32 54.1057H21.9179V45.9648ZM42.0822 59.0528C42.0822 60.7449 40.7057 62.1213 39.0137 62.1213H24.9863C23.2944 62.1213 21.9179 60.7449 21.9179 59.0528V55.9843H32C33.623 55.9843 34.9433 54.664 34.9433 53.0411V37.0098C34.9433 35.3869 33.623 34.0665 32 34.0665H21.9179V34.0191C21.9179 31.5634 22.6058 29.1647 23.9072 27.0824L25.8315 24.0035C26.5282 22.8887 26.9777 21.6092 27.1314 20.3037L28.8275 5.8865H28.9942H35.0059H35.1726L36.8687 20.3038C37.0224 21.6093 37.4717 22.8887 38.1686 24.0036L40.0929 27.0825C41.3943 29.1647 42.0822 31.5634 42.0822 34.0191V59.0528Z" fill="#231F20"/>
<path d="M28.9942 48.0939H26.9902C26.4715 48.0939 26.0509 48.5145 26.0509 49.0333C26.0509 49.552 26.4715 49.9726 26.9902 49.9726H28.9942C29.5129 49.9726 29.9335 49.552 29.9335 49.0333C29.9335 48.5145 29.5129 48.0939 28.9942 48.0939Z" fill="#231F20"/>
<path d="M35.2267 22.695C34.998 21.9948 34.839 21.2741 34.7541 20.5527C34.6935 20.0375 34.2271 19.6699 33.7115 19.7295C33.1962 19.7902 32.8277 20.2569 32.8884 20.7722C32.9877 21.617 33.1737 22.4601 33.4409 23.2784C33.5704 23.6746 33.9383 23.9262 34.3337 23.9262C34.4304 23.9262 34.5287 23.9112 34.6255 23.8795C35.1185 23.7185 35.3877 23.1882 35.2267 22.695Z" fill="#231F20"/>
<path d="M29.9961 58.1135H24.9863C24.4676 58.1135 24.047 58.5341 24.047 59.0528C24.047 59.5716 24.4676 59.9922 24.9863 59.9922H29.9961C30.5149 59.9922 30.9355 59.5716 30.9355 59.0528C30.9355 58.5341 30.5149 58.1135 29.9961 58.1135Z" fill="#231F20"/>
<path d="M36.0078 58.1135H34.0033C33.4845 58.1135 33.064 58.5341 33.064 59.0528C33.064 59.5716 33.4845 59.9922 34.0033 59.9922H36.0078C36.5266 59.9922 36.9472 59.5716 36.9472 59.0528C36.9472 58.5341 36.5266 58.1135 36.0078 58.1135Z" fill="#231F20"/>
<path d="M36.8045 25.8383C36.5296 25.3985 35.95 25.2646 35.5101 25.5396C35.0702 25.8145 34.9364 26.394 35.2114 26.834L36.6941 29.2065C37.597 30.6512 38.0743 32.3154 38.0743 34.0191V35.0062C38.0743 35.525 38.4949 35.9456 39.0137 35.9456C39.5324 35.9456 39.953 35.525 39.953 35.0062V34.0191C39.953 31.9629 39.377 29.9545 38.2872 28.2108L36.8045 25.8383Z" fill="#231F20"/>
</g>
<defs>
<clipPath id="clip0_6_325">
<rect width="64" height="64" fill="white"/>
</clipPath>
</defs>
</svg>
