<svg width="64" height="64" viewBox="0 0 64 64" fill="none" xmlns="http://www.w3.org/2000/svg">
<path d="M21.5226 27.9776H19.4297V29.9396H21.5226V27.9776Z" fill="#231F20"/>
<path d="M19.4295 32.0325H17.4675V33.9945H19.4295V32.0325Z" fill="#231F20"/>
<path d="M24.5309 32.9481H22.438V34.9101H24.5309V32.9481Z" fill="#231F20"/>
<path d="M31.4635 40.1424H29.5015V42.1044H31.4635V40.1424Z" fill="#231F20"/>
<path d="M33.5564 32.0325H31.4635V33.9945H33.5564V32.0325Z" fill="#231F20"/>
<path d="M26.4929 52.9611H24.5309V54.9231H26.4929V52.9611Z" fill="#231F20"/>
<path d="M42.1856 0C38.517 0 35.5322 2.98463 35.5322 6.65338V6.98475H37.4942V6.65338C37.4942 4.06663 39.5987 1.96212 42.1855 1.96212H49.5212V0H42.1856Z" fill="#231F20"/>
<path d="M37.4944 13.0079V7.98526H35.5324V13.0079H14.4786L16.5599 64H44.4595L46.5408 13.0079H37.4944ZM17.9501 49.953H19.4289V47.991H17.8701L17.4344 37.3165C17.6993 37.1483 18.0449 37.0068 18.4664 37.0068C19.5929 37.0068 20.4753 37.8841 20.4753 39.0043V58.0628H18.2813L17.9501 49.953ZM42.5759 62.038H18.4434L18.3613 60.0248H42.658L42.5759 62.038ZM32.5094 50.9994V58.0628H28.5853V39.0043C28.5853 37.8711 29.4471 36.9835 30.5473 36.9835C31.6475 36.9835 32.5093 37.8711 32.5093 39.0043V49.0374H31.4629V50.9994H32.5094ZM43.4969 39.4728V38.9656H41.5349V40.9276H43.4375L42.7381 58.0628H40.4884V54.0079H41.5348V52.0459H40.4884V39.0044C40.4884 37.9029 41.3959 37.0069 42.5111 37.0069C42.8848 37.0069 43.2556 37.1224 43.5841 37.3349L43.4969 39.4728ZM43.6703 35.225C43.2954 35.107 42.9051 35.0448 42.5111 35.0448C40.3139 35.0448 38.5264 36.821 38.5264 39.0043V58.0628H34.4715V39.0043C34.4715 36.7709 32.7478 35.0214 30.5474 35.0214C28.347 35.0214 26.6233 36.7709 26.6233 39.0043V58.0628H22.4375V44.9824H24.5304V43.0204H22.4375V39.0043C22.4375 36.821 20.6561 35.0448 18.4665 35.0448C18.0874 35.0448 17.7114 35.1035 17.3488 35.2148L16.9733 26.016H21.8948L26.5073 30.6285L31.1198 26.016H35.5323V55.0141H37.4943V26.0159H41.5348V27.0623H43.4968V26.0159H44.046L43.6703 35.225ZM23.6493 24.9958L26.5071 22.1379L29.365 24.9958L26.5071 27.8536L23.6493 24.9958ZM44.1263 24.0538H37.4944V16.9908H35.5324V24.0538H31.1979L26.5073 19.3631L21.8166 24.0538H16.8933L16.5225 14.97H35.5324V15.9903H37.4944V14.97H44.4969L44.1263 24.0538Z" fill="#231F20"/>
<path d="M42.5819 30.0705H40.489V32.0325H42.5819V30.0705Z" fill="#231F20"/>
</svg>
