<svg width="64" height="64" viewBox="0 0 64 64" fill="none" xmlns="http://www.w3.org/2000/svg">
<path d="M22.1946 24.2044C21.6966 23.9933 21.1216 24.2254 20.9104 24.7236C20.699 25.2218 20.9314 25.7968 21.4294 26.0081C23.8731 27.045 25.4523 29.3688 25.4523 31.9281C25.4523 32.4693 25.8909 32.9078 26.4319 32.9078C26.9729 32.9078 27.4115 32.4693 27.4115 31.9281C27.4115 28.5808 25.3638 25.5489 22.1946 24.2044Z" fill="#231F20"/>
<path d="M53.9032 37.5506C53.6607 36.5854 53.2745 35.6693 52.7555 34.8274C52.5772 34.538 52.2615 34.3618 51.9215 34.3618H48.4985C47.9575 34.3618 47.5189 34.8004 47.5189 35.3414C47.519 35.8825 47.9577 36.321 48.4987 36.321H51.3527C51.635 36.8601 51.8532 37.4324 52.0028 38.0283C52.1144 38.4728 52.5137 38.7694 52.9522 38.7694C53.0312 38.7694 53.1115 38.7598 53.1915 38.7396C53.7165 38.6075 54.035 38.0754 53.9032 37.5506Z" fill="#231F20"/>
<path d="M23.453 21.565V19.5919C23.453 19.0507 23.0144 18.6122 22.4734 18.6122C21.9324 18.6122 21.4938 19.0507 21.4938 19.5919V22.9106L22.1357 23.1465C25.8743 24.5201 28.3864 28.0491 28.3864 31.9281V34.015H9.08778V31.9281C9.08778 28.0492 11.5998 24.52 15.3384 23.1465L15.9803 22.9106V14.639C16.1119 14.6607 16.2465 14.6744 16.3847 14.6744H21.0897C21.2277 14.6744 21.3623 14.6607 21.4939 14.639V15.1511C21.4939 15.6922 21.9325 16.1307 22.4735 16.1307C23.0145 16.1307 23.4532 15.6922 23.4532 15.1511V2.25112C23.4532 1.00987 22.3929 0.00012207 21.0898 0.00012207H16.3848C15.0815 0.00012207 14.0213 1.00987 14.0213 2.25112V21.565C9.87128 23.3757 7.12891 27.4577 7.12891 31.928V60.7674C7.12891 62.5499 8.60491 64 10.4192 64H27.0555C28.8698 64 30.3457 62.5497 30.3457 60.7674V31.928C30.3454 27.4577 27.603 23.3759 23.453 21.565ZM15.9802 2.251C15.9802 2.113 16.1462 1.95925 16.3845 1.95925H21.0895C21.3278 1.95925 21.4938 2.11312 21.4938 2.251V3.5815C21.479 3.58075 21.4644 3.57912 21.4494 3.57912H15.9802V2.251ZM15.9802 6.55812V5.53825H21.4494C21.4644 5.53825 21.479 5.53662 21.4938 5.53587V6.55787V12.4231C21.4938 12.5611 21.3278 12.7147 21.0895 12.7147H16.3845C16.1463 12.7147 15.9802 12.561 15.9802 12.4231V6.55812ZM9.08778 35.9741H28.3863V49.1491H9.08778V35.9741ZM28.3864 60.7674H28.3863C28.3863 61.4695 27.7893 62.0409 27.0553 62.0409H10.4189C9.68491 62.0409 9.08778 61.4696 9.08778 60.7674V59.115H17.9289C18.4699 59.115 18.9085 58.6765 18.9085 58.1354C18.9085 57.5942 18.4699 57.1557 17.9289 57.1557H9.08791V51.1082H28.3864V60.7674Z" fill="#231F20"/>
<path d="M23.1184 38.8571H14.5548C14.0138 38.8571 13.5752 39.2956 13.5752 39.8367C13.5752 40.3779 14.0139 40.8164 14.5549 40.8164H23.1184C23.6594 40.8164 24.0981 40.3779 24.0981 39.8367C24.0981 39.2956 23.6594 38.8571 23.1184 38.8571Z" fill="#231F20"/>
<path d="M21.5241 43.0367H16.1493C15.6083 43.0367 15.1697 43.4752 15.1697 44.0164C15.1697 44.5575 15.6083 44.996 16.1493 44.996H21.5241C22.0651 44.996 22.5037 44.5575 22.5037 44.0164C22.5037 43.4752 22.0651 43.0367 21.5241 43.0367Z" fill="#231F20"/>
<path d="M22.9165 57.1558H20.5692C20.0282 57.1558 19.5896 57.5943 19.5896 58.1354C19.5896 58.6764 20.0282 59.115 20.5692 59.115H22.9165C23.4575 59.115 23.8961 58.6765 23.8961 58.1354C23.896 57.5943 23.4574 57.1558 22.9165 57.1558Z" fill="#231F20"/>
<path d="M56.8715 39.8895C56.8715 37.2589 56.0065 34.6486 54.4356 32.5395C54.0368 32.0041 53.4001 31.6846 52.7328 31.6846H50.2859C49.7449 31.6846 49.3063 32.1231 49.3063 32.6643C49.3063 33.2054 49.7449 33.6439 50.2859 33.6439H52.7328C52.7844 33.6439 52.8336 33.6686 52.8644 33.71C54.185 35.4833 54.9123 37.6779 54.9123 39.8896C54.9123 45.5948 50.2708 50.2363 44.5656 50.2363C38.8605 50.2363 34.219 45.5948 34.219 39.8896C34.219 37.6779 34.9463 35.4833 36.2668 33.7104C36.2978 33.6689 36.347 33.644 36.3985 33.644H45.8449C46.3859 33.644 46.8245 33.2055 46.8245 32.6644C46.8245 32.1233 46.3859 31.6848 45.8449 31.6848H36.3988C35.7314 31.6848 35.0949 32.0043 34.6958 32.5399C33.125 34.6488 32.26 37.259 32.26 39.8895C32.26 46.3453 37.257 51.6555 43.5861 52.1563V59.3269C41.3286 59.4651 38.9376 60.0971 38.121 61.5389C37.8331 62.0475 37.8373 62.677 38.1315 63.1813C38.4256 63.6863 38.9715 63.9999 39.556 63.9999H49.5754C50.1599 63.9999 50.7058 63.6863 50.9996 63.1818C51.2941 62.677 51.2983 62.0474 51.0103 61.5385C50.1939 60.0971 47.8029 59.4649 45.5454 59.3268V52.1563C51.8745 51.6555 56.8715 46.3453 56.8715 39.8895ZM48.7441 62.0409H40.3874C41.1366 61.6353 42.5611 61.256 44.5656 61.256C46.5705 61.256 47.9949 61.6351 48.7441 62.0409Z" fill="#231F20"/>
<path d="M53.5622 41.0694C53.2554 40.6651 52.7692 40.4236 52.2617 40.4236H36.8698C36.3623 40.4236 35.876 40.6651 35.569 41.0695C35.2623 41.474 35.1608 42.0072 35.2977 42.4962C36.4549 46.6306 40.266 49.5182 44.5658 49.5182C48.8654 49.5182 52.6767 46.6307 53.8339 42.4962C53.9705 42.0072 53.8692 41.474 53.5622 41.0694ZM44.5657 47.559C41.2867 47.559 38.3644 45.4512 37.3132 42.3827H51.8183C50.7669 45.4514 47.8448 47.559 44.5657 47.559Z" fill="#231F20"/>
</svg>
