<svg width="32" height="32" viewBox="0 0 32 32" fill="none" xmlns="http://www.w3.org/2000/svg">
<path d="M14.667 17.735L6.90202 28.579C6.50602 29.131 5.83402 29.422 5.15702 29.339C4.38602 29.246 3.32402 28.954 2.23002 28.167C1.13602 27.38 0.522019 26.464 0.189019 25.766C-0.107981 25.151 -0.0459809 24.422 0.350019 23.865L8.11502 13.022C8.48402 12.506 8.97002 12.079 9.53102 11.787L11.058 10.979C11.365 10.818 11.641 10.599 11.87 10.344C12.61 9.49999 14.599 7.29699 18.131 3.73498L18.194 3.44799C18.203 3.38499 18.255 3.33298 18.318 3.31699L18.517 3.26499C18.6 3.24499 18.657 3.16599 18.646 3.07799L18.631 2.83799C18.62 2.73899 18.694 2.64999 18.798 2.64999C19.031 2.63899 19.485 2.70699 20.131 3.17099C20.771 3.63499 20.984 4.04599 21.052 4.26999C21.083 4.36899 21.021 4.46898 20.927 4.48898L20.694 4.54599C20.61 4.56699 20.553 4.64999 20.558 4.73899L20.574 4.93599C20.579 5.00399 20.547 5.06699 20.49 5.09699L20.241 5.24899C18.006 9.74399 16.558 12.337 15.996 13.31C15.824 13.613 15.709 13.941 15.657 14.285L15.381 15.993C15.282 16.618 15.037 17.217 14.668 17.733L14.667 17.735ZM31.651 23.864L23.886 13.021C23.517 12.5 23.031 12.078 22.47 11.781L20.943 10.973C20.636 10.812 20.36 10.598 20.131 10.338C19.875 10.046 19.615 9.75398 19.35 9.46899C19.293 9.41198 19.198 9.42099 19.162 9.48899C18.413 10.937 17.637 12.369 16.834 13.786C16.719 13.989 16.641 14.207 16.605 14.431C16.528 14.92 16.528 15.415 16.605 15.906L16.621 15.989C16.72 16.62 16.965 17.213 17.334 17.729L25.099 28.573C25.495 29.125 26.151 29.421 26.823 29.338C27.891 29.202 28.902 28.802 29.771 28.166C30.64 27.546 31.344 26.723 31.812 25.759C32.109 25.144 32.047 24.416 31.651 23.864ZM11.073 4.48898L11.306 4.54599C11.39 4.56699 11.447 4.64499 11.442 4.73399L11.426 4.93099C11.421 4.99899 11.453 5.06199 11.51 5.09799L11.759 5.24999C12.171 6.07799 12.556 6.83799 12.916 7.54099C12.952 7.60898 13.035 7.62499 13.087 7.56799C13.671 6.94299 14.374 6.20299 15.202 5.34399C15.27 5.27599 15.275 5.16098 15.207 5.08799C14.786 4.66098 14.348 4.21299 13.868 3.72899L13.805 3.44799C13.796 3.38499 13.744 3.33298 13.681 3.31699L13.482 3.26499C13.399 3.24499 13.342 3.16599 13.353 3.07799L13.368 2.83799C13.379 2.73899 13.305 2.65499 13.207 2.64999C12.972 2.63899 12.515 2.70699 11.868 3.17099C11.228 3.63499 11.02 4.04599 10.947 4.26999C10.92 4.36899 10.978 4.46898 11.078 4.48898H11.073Z" fill="#231F20"/>
</svg>
