<svg width="252" height="60" viewBox="0 0 252 60" fill="none" xmlns="http://www.w3.org/2000/svg">
<path d="M62.6 30.8L65.336 30.944L68.144 30.8C68.72 30.8 69.192 30.984 69.56 31.352C69.928 31.72 70.112 32.184 70.112 32.744C70.112 35.368 69.408 37.464 68 39.032C66.608 40.584 64.784 41.36 62.528 41.36C60.272 41.36 58.376 40.448 56.84 38.624C55.304 36.8 54.536 34.584 54.536 31.976C54.536 29.368 55.328 27.16 56.912 25.352C58.496 23.544 60.496 22.64 62.912 22.64C64.464 22.64 65.872 22.976 67.136 23.648C68.4 24.32 69.032 25.048 69.032 25.832C69.032 26.28 68.888 26.64 68.6 26.912C68.312 27.168 67.944 27.296 67.496 27.296C67.048 27.296 66.624 27.168 66.224 26.912C65.824 26.64 65.36 26.368 64.832 26.096C64.304 25.824 63.664 25.688 62.912 25.688C61.472 25.688 60.28 26.304 59.336 27.536C58.408 28.768 57.944 30.24 57.944 31.952C57.944 33.664 58.384 35.16 59.264 36.44C60.16 37.704 61.288 38.336 62.648 38.336C63.672 38.336 64.544 37.952 65.264 37.184C65.984 36.4 66.416 35.304 66.56 33.896C66.384 33.88 65.952 33.872 65.264 33.872L62.6 33.992C62.008 33.992 61.528 33.848 61.16 33.56C60.792 33.256 60.608 32.864 60.608 32.384C60.608 31.888 60.792 31.504 61.16 31.232C61.528 30.944 62.008 30.8 62.6 30.8ZM79.559 38.072L82.847 37.928C83.455 37.928 83.935 38.072 84.287 38.36C84.655 38.632 84.839 39.016 84.839 39.512C84.839 40.008 84.655 40.408 84.287 40.712C83.935 41 83.455 41.144 82.847 41.144L79.559 41L75.935 41.144C75.343 41.144 74.847 40.952 74.447 40.568C74.063 40.184 73.871 39.672 73.871 39.032L74.015 31.88L73.823 25.376C73.823 23.632 74.431 22.76 75.647 22.76C76.863 22.76 77.471 23.632 77.471 25.376L77.279 31.88C77.279 32.696 77.335 34.744 77.447 38.024C78.279 38.056 78.983 38.072 79.559 38.072ZM95.5124 38.336C96.9364 38.336 98.1204 37.696 99.0644 36.416C100.008 35.136 100.48 33.656 100.48 31.976C100.48 30.28 100.008 28.808 99.0644 27.56C98.1364 26.296 96.9524 25.664 95.5124 25.664C94.0884 25.664 92.9044 26.296 91.9604 27.56C91.0324 28.808 90.5684 30.28 90.5684 31.976C90.5684 33.656 91.0404 35.136 91.9844 36.416C92.9284 37.696 94.1044 38.336 95.5124 38.336ZM95.5364 22.64C97.9204 22.64 99.9044 23.552 101.488 25.376C103.088 27.184 103.888 29.392 103.888 32C103.888 34.592 103.088 36.8 101.488 38.624C99.8884 40.448 97.8964 41.36 95.5124 41.36C93.1444 41.36 91.1604 40.448 89.5604 38.624C87.9604 36.8 87.1604 34.592 87.1604 32C87.1604 29.392 87.9604 27.184 89.5604 25.376C91.1764 23.552 93.1684 22.64 95.5364 22.64ZM121.15 25.352L120.91 34.856C120.91 36.648 120.334 38.184 119.182 39.464C118.046 40.728 116.422 41.36 114.31 41.36C112.198 41.36 110.566 40.728 109.414 39.464C108.278 38.2 107.71 36.672 107.71 34.88L107.47 25.376C107.47 23.632 108.078 22.76 109.294 22.76C110.51 22.76 111.118 23.632 111.118 25.376L110.95 33.08C110.95 35.624 111.51 37.24 112.63 37.928C113.094 38.2 113.654 38.336 114.31 38.336C114.982 38.336 115.542 38.2 115.99 37.928C116.454 37.64 116.798 37.24 117.022 36.728C117.454 35.768 117.67 34.544 117.67 33.056L117.502 25.352C117.502 23.608 118.11 22.736 119.326 22.736C120.542 22.736 121.15 23.608 121.15 25.352ZM142.214 31.592L143.822 31.64C145.918 31.64 146.966 31.128 146.966 30.104C146.966 29.736 146.83 29.416 146.558 29.144C146.286 28.872 145.982 28.672 145.646 28.544C145.31 28.4 145.006 28.208 144.734 27.968C144.462 27.712 144.326 27.392 144.326 27.008C144.326 26.624 144.462 26.296 144.734 26.024C145.006 25.752 145.414 25.616 145.958 25.616C146.982 25.616 147.958 26.08 148.886 27.008C149.814 27.92 150.278 29 150.278 30.248C150.278 31.496 149.814 32.488 148.886 33.224C147.974 33.96 146.854 34.384 145.526 34.496C145.654 35.008 145.718 35.48 145.718 35.912C145.718 37.336 145.094 38.6 143.846 39.704C142.614 40.808 141.006 41.36 139.022 41.36C137.038 41.36 135.382 40.768 134.054 39.584C132.726 38.384 132.062 36.888 132.062 35.096C132.062 34.168 132.27 33.264 132.686 32.384C133.102 31.488 133.67 30.712 134.39 30.056C133.59 29.112 133.19 28.088 133.19 26.984C133.19 25.88 133.622 24.88 134.486 23.984C135.35 23.088 136.566 22.64 138.134 22.64C139.126 22.64 140.046 22.912 140.894 23.456C141.758 23.984 142.19 24.528 142.19 25.088C142.19 25.632 142.038 26.032 141.734 26.288C141.446 26.544 141.118 26.672 140.75 26.672C140.382 26.672 139.934 26.512 139.406 26.192C138.894 25.856 138.43 25.688 138.014 25.688C137.598 25.688 137.238 25.816 136.934 26.072C136.646 26.328 136.502 26.72 136.502 27.248C136.502 27.76 136.75 28.208 137.246 28.592C137.566 28.56 137.854 28.544 138.11 28.544C138.734 28.544 139.246 28.704 139.646 29.024C140.046 29.328 140.246 29.752 140.246 30.296C140.246 30.824 140.03 31.24 139.598 31.544C139.166 31.848 138.702 32 138.206 32C137.726 32 137.31 31.952 136.958 31.856C135.934 32.576 135.422 33.592 135.422 34.904C135.422 35.928 135.75 36.752 136.406 37.376C137.078 38 137.95 38.312 139.022 38.312C140.11 38.312 140.95 38.032 141.542 37.472C142.15 36.912 142.454 36.304 142.454 35.648C142.454 35.344 142.406 35.024 142.31 34.688C141.974 34.992 141.598 35.144 141.182 35.144C140.782 35.144 140.438 34.992 140.15 34.688C139.862 34.384 139.718 33.968 139.718 33.44C139.718 32.912 139.95 32.472 140.414 32.12C140.878 31.768 141.478 31.592 142.214 31.592ZM168.045 30.8L170.781 30.944L173.589 30.8C174.165 30.8 174.637 30.984 175.005 31.352C175.373 31.72 175.557 32.184 175.557 32.744C175.557 35.368 174.853 37.464 173.445 39.032C172.053 40.584 170.229 41.36 167.973 41.36C165.717 41.36 163.821 40.448 162.285 38.624C160.749 36.8 159.981 34.584 159.981 31.976C159.981 29.368 160.773 27.16 162.357 25.352C163.941 23.544 165.941 22.64 168.357 22.64C169.909 22.64 171.317 22.976 172.581 23.648C173.845 24.32 174.477 25.048 174.477 25.832C174.477 26.28 174.333 26.64 174.045 26.912C173.757 27.168 173.389 27.296 172.941 27.296C172.493 27.296 172.069 27.168 171.669 26.912C171.269 26.64 170.805 26.368 170.277 26.096C169.749 25.824 169.109 25.688 168.357 25.688C166.917 25.688 165.725 26.304 164.781 27.536C163.853 28.768 163.389 30.24 163.389 31.952C163.389 33.664 163.829 35.16 164.709 36.44C165.605 37.704 166.733 38.336 168.093 38.336C169.117 38.336 169.989 37.952 170.709 37.184C171.429 36.4 171.861 35.304 172.005 33.896C171.829 33.88 171.397 33.872 170.709 33.872L168.045 33.992C167.453 33.992 166.973 33.848 166.605 33.56C166.237 33.256 166.053 32.864 166.053 32.384C166.053 31.888 166.237 31.504 166.605 31.232C166.973 30.944 167.453 30.8 168.045 30.8ZM185.004 38.072L188.292 37.928C188.9 37.928 189.38 38.072 189.732 38.36C190.1 38.632 190.284 39.016 190.284 39.512C190.284 40.008 190.1 40.408 189.732 40.712C189.38 41 188.9 41.144 188.292 41.144L185.004 41L181.38 41.144C180.788 41.144 180.292 40.952 179.892 40.568C179.508 40.184 179.316 39.672 179.316 39.032L179.46 31.88L179.268 25.376C179.268 23.632 179.876 22.76 181.092 22.76C182.308 22.76 182.916 23.632 182.916 25.376L182.724 31.88C182.724 32.696 182.78 34.744 182.892 38.024C183.724 38.056 184.428 38.072 185.004 38.072ZM200.958 38.336C202.382 38.336 203.566 37.696 204.51 36.416C205.454 35.136 205.926 33.656 205.926 31.976C205.926 30.28 205.454 28.808 204.51 27.56C203.582 26.296 202.398 25.664 200.958 25.664C199.534 25.664 198.35 26.296 197.406 27.56C196.478 28.808 196.014 30.28 196.014 31.976C196.014 33.656 196.486 35.136 197.43 36.416C198.374 37.696 199.55 38.336 200.958 38.336ZM200.982 22.64C203.366 22.64 205.35 23.552 206.934 25.376C208.534 27.184 209.334 29.392 209.334 32C209.334 34.592 208.534 36.8 206.934 38.624C205.334 40.448 203.342 41.36 200.958 41.36C198.59 41.36 196.606 40.448 195.006 38.624C193.406 36.8 192.606 34.592 192.606 32C192.606 29.392 193.406 27.184 195.006 25.376C196.622 23.552 198.614 22.64 200.982 22.64ZM226.596 25.352L226.356 34.856C226.356 36.648 225.78 38.184 224.628 39.464C223.492 40.728 221.868 41.36 219.756 41.36C217.644 41.36 216.012 40.728 214.86 39.464C213.724 38.2 213.156 36.672 213.156 34.88L212.916 25.376C212.916 23.632 213.524 22.76 214.74 22.76C215.956 22.76 216.564 23.632 216.564 25.376L216.396 33.08C216.396 35.624 216.956 37.24 218.076 37.928C218.54 38.2 219.1 38.336 219.756 38.336C220.428 38.336 220.988 38.2 221.436 37.928C221.9 37.64 222.244 37.24 222.468 36.728C222.9 35.768 223.116 34.544 223.116 33.056L222.948 25.352C222.948 23.608 223.556 22.736 224.772 22.736C225.988 22.736 226.596 23.608 226.596 25.352Z" fill="#231F20"/>
<path d="M46.138 28.1644C46.138 28.1644 43.7798 27.7356 40.564 27.95C40.6712 27.95 40.6712 27.95 40.7784 27.95C42.6007 23.2336 41.7431 17.7669 41.7431 17.7669C41.7431 17.7669 37.9915 17.231 34.0254 17.9813L33.7038 17.6597C33.7038 17.5525 33.7038 17.5525 33.7038 17.4453C33.7038 8.97727 24.1639 2.11707 24.1639 2.11707C24.1639 2.11707 21.5913 4.0465 19.0187 7.04784C20.5194 5.54717 22.3416 4.36807 24.3782 3.61774L24.4854 28.0572C24.4854 28.0572 23.5207 26.6637 22.1272 24.8415C23.6279 29.2363 22.556 34.3815 22.556 34.3815C20.9481 23.7696 8.19245 19.6963 8.19245 19.6963C12.5873 18.7316 15.6958 18.946 17.8396 20.0179C16.6605 18.946 15.5886 18.1957 14.7311 18.1957C14.3023 18.1957 14.0879 17.9813 13.8736 17.6597L13.4448 17.7669C9.80031 17.231 6.58459 17.7669 6.58459 17.7669C6.58459 17.7669 5.94144 21.733 6.90616 25.8062L7.22773 28.0572C4.33358 27.95 2.18977 28.2716 2.18977 28.2716C2.18977 28.2716 0.367527 39.8482 6.26302 45.8509C12.1585 51.8536 23.8423 49.9241 23.8423 49.9241C23.8423 49.9241 24.1639 47.7803 24.0567 44.8862C23.9495 47.7803 24.2711 49.9241 24.2711 49.9241C24.2711 49.9241 35.8477 51.7464 41.8503 45.8509C47.853 39.9554 46.138 28.1644 46.138 28.1644ZM22.9848 48.5306C19.9834 32.5592 3.58325 29.6651 3.58325 29.6651C26.6293 25.3775 22.9848 48.5306 22.9848 48.5306ZM40.564 18.8388C26.3077 24.5199 25.5573 34.1671 25.5573 34.1671C22.8776 13.3721 40.564 18.8388 40.564 18.8388ZM25.2358 47.6731C24.4854 22.9121 45.1732 29.6651 45.1732 29.6651C28.4515 33.3096 25.2358 47.6731 25.2358 47.6731Z" fill="#F39200"/>
<path d="M19.7691 52.0679C15.4814 52.0679 9.15719 51.3175 4.97676 47.1371C-1.66907 40.4913 0.260365 28.3787 0.260365 27.8428C0.367556 26.9852 1.0107 26.3421 1.86823 26.2349C2.40418 26.1277 14.5167 24.3055 21.1625 30.9513C27.8084 37.5971 25.8789 49.7097 25.8789 50.2456C25.7718 51.1032 25.1286 51.7463 24.2711 51.8535C24.0567 51.8535 22.2345 52.0679 19.7691 52.0679ZM4.01204 29.9866C3.79766 33.0951 3.69047 40.3841 7.76371 44.3501C11.7298 48.3162 19.0187 48.3162 22.1273 48.1018C22.3417 44.9933 22.4488 37.7043 18.3756 33.7383C14.3023 29.665 7.12057 29.665 4.01204 29.9866Z" fill="#231F20"/>
<path d="M28.6659 52.0678C26.2006 52.0678 24.3783 51.7463 24.1639 51.7463C23.3064 51.6391 22.6633 50.9959 22.5561 50.1384C22.4489 49.6024 20.6266 37.4899 27.2725 30.8441C33.9183 24.1982 46.0308 26.1277 46.5668 26.1277C47.4243 26.2349 48.0675 26.878 48.1747 27.7355C48.2818 28.2715 50.1041 40.384 43.4583 47.0299C39.2778 51.3175 32.8464 52.0678 28.6659 52.0678ZM26.2006 47.9946C29.3091 48.209 36.5981 48.3162 40.5641 44.2429C44.5302 40.2768 44.5302 32.9879 44.3158 29.8793C41.2073 29.665 33.9183 29.5578 29.9522 33.631C25.9862 37.7043 25.9862 44.886 26.2006 47.9946Z" fill="#231F20"/>
<path d="M26.4149 37.1683C25.0214 37.0611 24.1639 36.954 24.0567 36.954C23.1992 36.8468 22.556 36.2036 22.4488 35.3461C22.3416 34.9173 20.841 25.0558 26.3077 19.5891C31.7744 14.1223 41.636 15.7302 42.0647 15.7302C42.9223 15.8374 43.5654 16.4805 43.6726 17.3381C43.6726 17.5524 44.6373 23.4479 42.7079 28.5931C42.3863 29.3434 41.7432 29.8794 40.8856 29.8794C37.5627 29.9866 32.8463 30.7369 29.9522 33.631C29.309 34.2742 28.6659 35.1317 28.1299 36.0964C27.8084 36.7396 27.1652 37.1683 26.4149 37.1683ZM38.3131 19.3747C35.5261 19.3747 31.4528 19.8034 29.0947 22.2688C26.6293 24.7342 26.0933 28.9147 26.2005 31.916C26.5221 31.4872 26.8436 31.1657 27.1652 30.7369C30.5953 27.3068 35.4189 26.2349 39.385 25.9133C40.0281 23.4479 40.0281 20.9825 39.9209 19.3747C39.4921 19.4819 38.9562 19.3747 38.3131 19.3747Z" fill="#231F20"/>
<path d="M21.9129 37.1683C21.1626 37.1683 20.5194 36.7396 20.1979 36.0964C19.6619 35.1317 19.1259 34.2742 18.3756 33.631C15.4815 30.7369 10.8723 29.9866 7.44216 29.8794C6.69183 29.8794 5.94149 29.3434 5.61992 28.5931C3.69049 23.4479 4.54801 17.6596 4.65521 17.3381C4.7624 16.4805 5.40554 15.8374 6.26307 15.7302C6.69183 15.623 16.5534 14.1223 22.0201 19.5891C27.4868 25.0558 25.879 34.9173 25.879 35.3461C25.7718 36.2036 25.1286 36.8468 24.2711 36.954C24.2711 36.954 23.3064 37.0611 21.9129 37.1683ZM9.05002 26.0205C12.9089 26.3421 17.8397 27.5212 21.2698 30.8441C21.5913 31.1657 21.9129 31.5944 22.2345 32.0232C22.2345 29.2362 21.9129 24.9486 19.3403 22.376C16.339 19.3747 11.0866 19.3747 8.51407 19.4819C8.40688 20.9825 8.40688 23.5551 9.05002 26.0205Z" fill="#231F20"/>
<path d="M24.1639 34.5958C23.7351 34.5958 23.4135 34.4886 23.0919 34.2742C22.556 33.8455 22.1272 33.2023 22.2344 32.5592C22.3416 29.8794 22.1272 25.0558 19.3403 22.3761C18.1612 21.197 16.4461 20.3394 14.3023 19.9107C13.4448 19.6963 12.8016 18.946 12.8016 18.0884V17.874C12.8016 17.6597 12.8016 17.5525 12.8016 17.3381C12.8016 8.0125 22.7704 0.723537 23.0919 0.401965C23.7351 -0.133988 24.6998 -0.133988 25.4501 0.401965C25.8789 0.723537 35.7404 8.0125 35.7404 17.3381C35.7404 17.5525 35.7404 17.6597 35.7404 17.874V18.0884C35.7404 18.946 35.0973 19.6963 34.2398 19.9107C32.096 20.3394 30.3809 21.197 29.2018 22.3761C26.4149 25.163 26.2005 29.9866 26.3077 32.5592C26.3077 33.2023 25.9861 33.8455 25.5573 34.2742C25.0214 34.4886 24.5926 34.5958 24.1639 34.5958ZM16.6605 16.3734C18.8043 17.0165 20.6266 18.0884 22.02 19.4819C22.8776 20.3394 23.6279 21.3041 24.1639 22.3761C24.6998 21.3041 25.4501 20.3394 26.3077 19.4819C27.7011 18.0884 29.5234 17.0165 31.6672 16.3734C31.1312 11.0138 26.4149 6.40464 24.1639 4.47521C21.9128 6.40464 17.1965 11.121 16.6605 16.3734Z" fill="#231F20"/>
<path d="M24.3782 60C23.3063 60 22.4487 59.1424 22.4487 58.0705V35.0245C22.4487 33.9526 23.3063 33.0951 24.3782 33.0951C25.4501 33.0951 26.3076 33.9526 26.3076 35.0245V58.0705C26.4148 59.0352 25.4501 60 24.3782 60Z" fill="#231F20"/>
<path d="M24.1639 27.7356C23.8423 27.7356 23.5208 27.414 23.5208 27.0925V25.8062C23.5208 25.4846 23.8423 25.163 24.1639 25.163C24.4855 25.163 24.807 25.4846 24.807 25.8062V27.0925C24.807 27.414 24.5927 27.7356 24.1639 27.7356ZM24.1639 23.7696C23.8423 23.7696 23.5208 23.448 23.5208 23.1264C23.5208 22.8048 23.8423 22.4833 24.1639 22.4833C24.4855 22.4833 24.807 22.8048 24.807 23.1264C24.807 23.448 24.5927 23.7696 24.1639 23.7696ZM24.1639 19.8035C23.8423 19.8035 23.5208 19.4819 23.5208 19.1604V17.8741C23.5208 17.5525 23.8423 17.2309 24.1639 17.2309C24.4855 17.2309 24.807 17.5525 24.807 17.8741V19.1604C24.807 19.4819 24.5927 19.8035 24.1639 19.8035ZM24.1639 15.8374C23.8423 15.8374 23.5208 15.5159 23.5208 15.1943C23.5208 14.8727 23.8423 14.5512 24.1639 14.5512C24.4855 14.5512 24.807 14.8727 24.807 15.1943C24.807 15.6231 24.5927 15.8374 24.1639 15.8374ZM24.1639 11.8714C23.8423 11.8714 23.5208 11.5498 23.5208 11.2282V9.94195C23.5208 9.62038 23.8423 9.29881 24.1639 9.29881C24.4855 9.29881 24.807 9.62038 24.807 9.94195V11.2282C24.807 11.657 24.5927 11.8714 24.1639 11.8714ZM24.1639 7.90533C23.8423 7.90533 23.5208 7.58376 23.5208 7.26219C23.5208 6.94062 23.8423 6.61904 24.1639 6.61904C24.4855 6.61904 24.807 6.94062 24.807 7.26219C24.807 7.69095 24.5927 7.90533 24.1639 7.90533ZM24.1639 3.93928C23.8423 3.93928 23.5208 3.6177 23.5208 3.29613V2.00984C23.5208 1.68827 23.8423 1.3667 24.1639 1.3667C24.4855 1.3667 24.807 1.68827 24.807 2.00984V3.29613C24.807 3.72489 24.5927 3.93928 24.1639 3.93928Z" fill="#231F20"/>
</svg>
