<svg width="165" height="61" viewBox="0 0 165 61" fill="none" xmlns="http://www.w3.org/2000/svg">
<path d="M104.027 21.6029C104.027 21.6029 102.218 21.2741 99.7513 21.4385C99.8336 21.4385 99.8336 21.4385 99.9158 21.4385C101.314 17.8209 100.656 13.6277 100.656 13.6277C100.656 13.6277 97.7781 13.2166 94.736 13.7922L94.4893 13.5455C94.4893 13.4633 94.4893 13.4633 94.4893 13.3811C94.4893 6.88578 87.1719 1.62378 87.1719 1.62378C87.1719 1.62378 85.1986 3.10372 83.2254 5.40584C84.3764 4.25478 85.7742 3.35037 87.3363 2.77484L87.4185 21.5207C87.4185 21.5207 86.6786 20.4519 85.6097 19.0542C86.7608 22.4251 85.9386 26.3716 85.9386 26.3716C84.7053 18.232 74.9213 15.1077 74.9213 15.1077C78.2922 14.3677 80.6766 14.5321 82.321 15.3543C81.4166 14.5321 80.5944 13.9566 79.9366 13.9566C79.6077 13.9566 79.4433 13.7922 79.2789 13.5455L78.95 13.6277C76.1546 13.2166 73.688 13.6277 73.688 13.6277C73.688 13.6277 73.1947 16.6698 73.9346 19.7941L74.1813 21.5207C71.9614 21.4385 70.317 21.6852 70.317 21.6852C70.317 21.6852 68.9193 30.5648 73.4413 35.169C77.9634 39.7733 86.9252 38.2934 86.9252 38.2934C86.9252 38.2934 87.1719 36.649 87.0897 34.4291C87.0074 36.649 87.2541 38.2934 87.2541 38.2934C87.2541 38.2934 96.1337 39.6911 100.738 35.169C105.342 30.647 104.027 21.6029 104.027 21.6029ZM86.2675 37.2245C83.9653 24.9739 71.3859 22.754 71.3859 22.754C89.0629 19.4653 86.2675 37.2245 86.2675 37.2245ZM99.7513 14.4499C88.8162 18.8075 88.2407 26.2072 88.2407 26.2072C86.1852 10.2568 99.7513 14.4499 99.7513 14.4499ZM87.9941 36.5668C87.4185 17.5742 103.287 22.754 103.287 22.754C90.4606 25.5494 87.9941 36.5668 87.9941 36.5668Z" fill="#FEB913"/>
<path d="M83.8009 39.9378C80.5121 39.9378 75.6612 39.3623 72.4547 36.1557C67.3571 31.0582 68.837 21.7674 68.837 21.3564C68.9193 20.6986 69.4126 20.2053 70.0703 20.1231C70.4814 20.0409 79.7721 18.6431 84.8697 23.7407C89.9673 28.8383 88.4873 38.129 88.4873 38.5401C88.4051 39.1978 87.9118 39.6911 87.254 39.7734C87.0896 39.7734 85.6919 39.9378 83.8009 39.9378ZM71.7147 23.0007C71.5503 25.3851 71.468 30.976 74.5924 34.018C77.6344 37.0601 83.2253 37.0601 85.6097 36.8957C85.7741 34.5114 85.8563 28.9205 82.732 25.8784C79.6077 22.7541 74.099 22.7541 71.7147 23.0007Z" fill="#231F20"/>
<path d="M90.625 39.9378C88.7339 39.9378 87.3362 39.6912 87.1718 39.6912C86.514 39.609 86.0207 39.1157 85.9385 38.4579C85.8563 38.0468 84.4586 28.7561 89.5561 23.6585C94.6537 18.561 103.944 20.0409 104.356 20.0409C105.013 20.1231 105.507 20.6164 105.589 21.2742C105.671 21.6853 107.069 30.976 101.971 36.0736C98.7646 39.3623 93.8315 39.9378 90.625 39.9378ZM88.7339 36.8135C91.1183 36.978 96.7092 37.0602 99.7513 33.9359C102.793 30.8938 102.793 25.3029 102.629 22.9186C100.245 22.7541 94.6537 22.6719 91.6116 25.7962C88.5695 28.9205 88.5695 34.4292 88.7339 36.8135Z" fill="#231F20"/>
<path d="M88.8985 28.5093C87.8297 28.4271 87.1719 28.3449 87.0897 28.3449C86.4319 28.2626 85.9386 27.7693 85.8564 27.1116C85.7742 26.7827 84.6231 19.2186 88.8163 15.0254C93.0094 10.8323 100.574 12.0655 100.902 12.0655C101.56 12.1478 102.054 12.6411 102.136 13.2988C102.136 13.4633 102.876 17.9853 101.396 21.9318C101.149 22.5073 100.656 22.9184 99.998 22.9184C97.4493 23.0006 93.8316 23.5762 91.6117 25.7961C91.1184 26.2894 90.6251 26.9471 90.214 27.6871C89.9673 28.1804 89.474 28.5093 88.8985 28.5093ZM98.0248 14.861C95.8871 14.861 92.7628 15.1899 90.954 17.0809C89.0629 18.9719 88.6518 22.1784 88.7341 24.4806C88.9807 24.1517 89.2274 23.905 89.474 23.5762C92.105 20.9452 95.8049 20.123 98.847 19.8763C99.3403 17.9853 99.3403 16.0943 99.2581 14.861C98.9292 14.9432 98.5181 14.861 98.0248 14.861Z" fill="#231F20"/>
<path d="M85.4453 28.5094C84.8698 28.5094 84.3764 28.1805 84.1298 27.6872C83.7187 26.9472 83.3076 26.2895 82.7321 25.7962C80.5122 23.5763 76.9767 23.0007 74.3457 22.9185C73.7702 22.9185 73.1947 22.5074 72.948 21.9319C71.4681 17.9854 72.1258 13.5456 72.2081 13.2989C72.2903 12.6412 72.7836 12.1479 73.4413 12.0656C73.7702 11.9834 81.3343 10.8324 85.5275 15.0255C89.7207 19.2187 88.4874 26.7828 88.4874 27.1117C88.4052 27.7694 87.9118 28.2627 87.2541 28.345C87.2541 28.345 86.5141 28.4272 85.4453 28.5094ZM75.579 19.9586C78.5389 20.2053 82.321 21.1097 84.952 23.6585C85.1986 23.9051 85.4453 24.234 85.6919 24.5629C85.6919 22.4252 85.4453 19.1365 83.472 17.1632C81.1699 14.8611 77.1412 14.8611 75.1679 14.9433C75.0857 16.0944 75.0857 18.0676 75.579 19.9586Z" fill="#231F20"/>
<path d="M87.1719 26.5361C86.843 26.5361 86.5963 26.4539 86.3497 26.2895C85.9386 25.9606 85.6097 25.4673 85.6919 24.974C85.7741 22.9185 85.6097 19.2186 83.472 17.1632C82.5676 16.2588 81.2521 15.601 79.6077 15.2721C78.95 15.1077 78.4567 14.5322 78.4567 13.8744V13.71C78.4567 13.5455 78.4567 13.4633 78.4567 13.2989C78.4567 6.14585 86.103 0.554977 86.3497 0.30832C86.843 -0.102773 87.583 -0.102773 88.1585 0.30832C88.4874 0.554977 96.0515 6.14585 96.0515 13.2989C96.0515 13.4633 96.0515 13.5455 96.0515 13.71V13.8744C96.0515 14.5322 95.5582 15.1077 94.9004 15.2721C93.256 15.601 91.9405 16.2588 91.0361 17.1632C88.8985 19.3009 88.734 23.0007 88.8162 24.974C88.8162 25.4673 88.5696 25.9606 88.2407 26.2895C87.8296 26.4539 87.5007 26.5361 87.1719 26.5361ZM81.4165 12.5589C83.0609 13.0522 84.4586 13.8744 85.5275 14.9433C86.1852 15.601 86.7608 16.341 87.1719 17.1632C87.583 16.341 88.1585 15.601 88.8162 14.9433C89.8851 13.8744 91.2828 13.0522 92.9272 12.5589C92.5161 8.44798 88.8985 4.91257 87.1719 3.43263C85.4453 4.91257 81.8276 8.5302 81.4165 12.5589Z" fill="#231F20"/>
<path d="M87.0962 48.0769C86.3651 48.0769 85.7803 47.3414 85.7803 46.422V26.6549C85.7803 25.7355 86.3651 25 87.0962 25C87.8272 25 88.4121 25.7355 88.4121 26.6549V46.422C88.4852 47.2495 87.8272 48.0769 87.0962 48.0769Z" fill="#231F20"/>
<path d="M87.1718 21.2742C86.9251 21.2742 86.6785 21.0275 86.6785 20.7808V19.7942C86.6785 19.5476 86.9251 19.3009 87.1718 19.3009C87.4184 19.3009 87.6651 19.5476 87.6651 19.7942V20.7808C87.6651 21.0275 87.5007 21.2742 87.1718 21.2742ZM87.1718 18.2321C86.9251 18.2321 86.6785 17.9854 86.6785 17.7388C86.6785 17.4921 86.9251 17.2454 87.1718 17.2454C87.4184 17.2454 87.6651 17.4921 87.6651 17.7388C87.6651 17.9854 87.5007 18.2321 87.1718 18.2321ZM87.1718 15.19C86.9251 15.19 86.6785 14.9433 86.6785 14.6967V13.71C86.6785 13.4634 86.9251 13.2167 87.1718 13.2167C87.4184 13.2167 87.6651 13.4634 87.6651 13.71V14.6967C87.6651 14.9433 87.5007 15.19 87.1718 15.19ZM87.1718 12.1479C86.9251 12.1479 86.6785 11.9012 86.6785 11.6546C86.6785 11.4079 86.9251 11.1612 87.1718 11.1612C87.4184 11.1612 87.6651 11.4079 87.6651 11.6546C87.6651 11.9834 87.5007 12.1479 87.1718 12.1479ZM87.1718 9.10578C86.9251 9.10578 86.6785 8.85912 86.6785 8.61247V7.62584C86.6785 7.37919 86.9251 7.13253 87.1718 7.13253C87.4184 7.13253 87.6651 7.37919 87.6651 7.62584V8.61247C87.6651 8.94134 87.5007 9.10578 87.1718 9.10578ZM87.1718 6.06368C86.9251 6.06368 86.6785 5.81703 86.6785 5.57037C86.6785 5.32372 86.9251 5.07706 87.1718 5.07706C87.4184 5.07706 87.6651 5.32372 87.6651 5.57037C87.6651 5.89925 87.5007 6.06368 87.1718 6.06368ZM87.1718 3.02159C86.9251 3.02159 86.6785 2.77493 86.6785 2.52828V1.54165C86.6785 1.29499 86.9251 1.04834 87.1718 1.04834C87.4184 1.04834 87.6651 1.29499 87.6651 1.54165V2.52828C87.6651 2.85715 87.5007 3.02159 87.1718 3.02159Z" fill="#231F20"/>
<path d="M10.7766 50.65L13.2846 50.782L15.8586 50.65C16.3866 50.65 16.8192 50.8187 17.1566 51.156C17.4939 51.4933 17.6626 51.9187 17.6626 52.432C17.6626 54.8373 17.0172 56.7587 15.7266 58.196C14.4506 59.6187 12.7786 60.33 10.7106 60.33C8.64256 60.33 6.90456 59.494 5.49656 57.822C4.08856 56.15 3.38456 54.1187 3.38456 51.728C3.38456 49.3373 4.11056 47.3133 5.56256 45.656C7.01456 43.9987 8.8479 43.17 11.0626 43.17C12.4852 43.17 13.7759 43.478 14.9346 44.094C16.0932 44.71 16.6726 45.3773 16.6726 46.096C16.6726 46.5067 16.5406 46.8367 16.2766 47.086C16.0126 47.3207 15.6752 47.438 15.2646 47.438C14.8539 47.438 14.4652 47.3207 14.0986 47.086C13.7319 46.8367 13.3066 46.5873 12.8226 46.338C12.3386 46.0887 11.7519 45.964 11.0626 45.964C9.74256 45.964 8.6499 46.5287 7.78456 47.658C6.9339 48.7873 6.50856 50.1367 6.50856 51.706C6.50856 53.2753 6.9119 54.6467 7.71856 55.82C8.5399 56.9787 9.5739 57.558 10.8206 57.558C11.7592 57.558 12.5586 57.206 13.2186 56.502C13.8786 55.7833 14.2746 54.7787 14.4066 53.488C14.2452 53.4733 13.8492 53.466 13.2186 53.466L10.7766 53.576C10.2339 53.576 9.7939 53.444 9.45656 53.18C9.11923 52.9013 8.95056 52.542 8.95056 52.102C8.95056 51.6473 9.11923 51.2953 9.45656 51.046C9.7939 50.782 10.2339 50.65 10.7766 50.65ZM26.3223 57.316L29.3363 57.184C29.8936 57.184 30.3336 57.316 30.6563 57.58C30.9936 57.8293 31.1623 58.1813 31.1623 58.636C31.1623 59.0907 30.9936 59.4573 30.6563 59.736C30.3336 60 29.8936 60.132 29.3363 60.132L26.3223 60L23.0003 60.132C22.4576 60.132 22.003 59.956 21.6363 59.604C21.2843 59.252 21.1083 58.7827 21.1083 58.196L21.2403 51.64L21.0643 45.678C21.0643 44.0793 21.6216 43.28 22.7363 43.28C23.851 43.28 24.4083 44.0793 24.4083 45.678L24.2323 51.64C24.2323 52.388 24.2836 54.2653 24.3863 57.272C25.149 57.3013 25.7943 57.316 26.3223 57.316ZM40.9463 57.558C42.2516 57.558 43.337 56.9713 44.2023 55.798C45.0676 54.6247 45.5003 53.268 45.5003 51.728C45.5003 50.1733 45.0676 48.824 44.2023 47.68C43.3516 46.5213 42.2663 45.942 40.9463 45.942C39.641 45.942 38.5556 46.5213 37.6903 47.68C36.8396 48.824 36.4143 50.1733 36.4143 51.728C36.4143 53.268 36.847 54.6247 37.7123 55.798C38.5776 56.9713 39.6556 57.558 40.9463 57.558ZM40.9683 43.17C43.1536 43.17 44.9723 44.006 46.4243 45.678C47.891 47.3353 48.6243 49.3593 48.6243 51.75C48.6243 54.126 47.891 56.15 46.4243 57.822C44.9576 59.494 43.1316 60.33 40.9463 60.33C38.7756 60.33 36.957 59.494 35.4903 57.822C34.0236 56.15 33.2903 54.126 33.2903 51.75C33.2903 49.3593 34.0236 47.3353 35.4903 45.678C36.9716 44.006 38.7976 43.17 40.9683 43.17ZM64.4476 45.656L64.2276 54.368C64.2276 56.0107 63.6996 57.4187 62.6436 58.592C61.6023 59.7507 60.1136 60.33 58.1776 60.33C56.2416 60.33 54.7456 59.7507 53.6896 58.592C52.6483 57.4333 52.1276 56.0327 52.1276 54.39L51.9076 45.678C51.9076 44.0793 52.465 43.28 53.5796 43.28C54.6943 43.28 55.2516 44.0793 55.2516 45.678L55.0976 52.74C55.0976 55.072 55.611 56.5533 56.6376 57.184C57.063 57.4333 57.5763 57.558 58.1776 57.558C58.7936 57.558 59.307 57.4333 59.7176 57.184C60.143 56.92 60.4583 56.5533 60.6636 56.084C61.0596 55.204 61.2576 54.082 61.2576 52.718L61.1036 45.656C61.1036 44.0573 61.661 43.258 62.7756 43.258C63.8903 43.258 64.4476 44.0573 64.4476 45.656ZM83.7557 51.376L85.2297 51.42C87.1511 51.42 88.1117 50.9507 88.1117 50.012C88.1117 49.6747 87.9871 49.3813 87.7377 49.132C87.4884 48.8827 87.2097 48.6993 86.9017 48.582C86.5937 48.45 86.3151 48.274 86.0657 48.054C85.8164 47.8193 85.6917 47.526 85.6917 47.174C85.6917 46.822 85.8164 46.5213 86.0657 46.272C86.3151 46.0227 86.6891 45.898 87.1877 45.898C88.1264 45.898 89.0211 46.3233 89.8717 47.174C90.7224 48.01 91.1477 49 91.1477 50.144C91.1477 51.288 90.7224 52.1973 89.8717 52.872C89.0357 53.5467 88.0091 53.9353 86.7917 54.038C86.9091 54.5073 86.9677 54.94 86.9677 55.336C86.9677 56.6413 86.3957 57.8 85.2517 58.812C84.1224 59.824 82.6484 60.33 80.8297 60.33C79.0111 60.33 77.4931 59.7873 76.2757 58.702C75.0584 57.602 74.4497 56.2307 74.4497 54.588C74.4497 53.7373 74.6404 52.9087 75.0217 52.102C75.4031 51.2807 75.9237 50.5693 76.5837 49.968C75.8504 49.1027 75.4837 48.164 75.4837 47.152C75.4837 46.14 75.8797 45.2233 76.6717 44.402C77.4637 43.5807 78.5784 43.17 80.0157 43.17C80.9251 43.17 81.7684 43.4193 82.5457 43.918C83.3377 44.402 83.7337 44.9007 83.7337 45.414C83.7337 45.9127 83.5944 46.2793 83.3157 46.514C83.0517 46.7487 82.7511 46.866 82.4137 46.866C82.0764 46.866 81.6657 46.7193 81.1817 46.426C80.7124 46.118 80.2871 45.964 79.9057 45.964C79.5244 45.964 79.1944 46.0813 78.9157 46.316C78.6517 46.5507 78.5197 46.91 78.5197 47.394C78.5197 47.8633 78.7471 48.274 79.2017 48.626C79.4951 48.5967 79.7591 48.582 79.9937 48.582C80.5657 48.582 81.0351 48.7287 81.4017 49.022C81.7684 49.3007 81.9517 49.6893 81.9517 50.188C81.9517 50.672 81.7537 51.0533 81.3577 51.332C80.9617 51.6107 80.5364 51.75 80.0817 51.75C79.6417 51.75 79.2604 51.706 78.9377 51.618C77.9991 52.278 77.5297 53.2093 77.5297 54.412C77.5297 55.3507 77.8304 56.106 78.4317 56.678C79.0477 57.25 79.8471 57.536 80.8297 57.536C81.8271 57.536 82.5971 57.2793 83.1397 56.766C83.6971 56.2527 83.9757 55.6953 83.9757 55.094C83.9757 54.8153 83.9317 54.522 83.8437 54.214C83.5357 54.4927 83.1911 54.632 82.8097 54.632C82.4431 54.632 82.1277 54.4927 81.8637 54.214C81.5997 53.9353 81.4677 53.554 81.4677 53.07C81.4677 52.586 81.6804 52.1827 82.1057 51.86C82.5311 51.5373 83.0811 51.376 83.7557 51.376ZM107.435 50.65L109.943 50.782L112.517 50.65C113.045 50.65 113.477 50.8187 113.815 51.156C114.152 51.4933 114.321 51.9187 114.321 52.432C114.321 54.8373 113.675 56.7587 112.385 58.196C111.109 59.6187 109.437 60.33 107.369 60.33C105.301 60.33 103.563 59.494 102.155 57.822C100.747 56.15 100.043 54.1187 100.043 51.728C100.043 49.3373 100.769 47.3133 102.221 45.656C103.673 43.9987 105.506 43.17 107.721 43.17C109.143 43.17 110.434 43.478 111.593 44.094C112.751 44.71 113.331 45.3773 113.331 46.096C113.331 46.5067 113.199 46.8367 112.935 47.086C112.671 47.3207 112.333 47.438 111.923 47.438C111.512 47.438 111.123 47.3207 110.757 47.086C110.39 46.8367 109.965 46.5873 109.481 46.338C108.997 46.0887 108.41 45.964 107.721 45.964C106.401 45.964 105.308 46.5287 104.443 47.658C103.592 48.7873 103.167 50.1367 103.167 51.706C103.167 53.2753 103.57 54.6467 104.377 55.82C105.198 56.9787 106.232 57.558 107.479 57.558C108.417 57.558 109.217 57.206 109.877 56.502C110.537 55.7833 110.933 54.7787 111.065 53.488C110.903 53.4733 110.507 53.466 109.877 53.466L107.435 53.576C106.892 53.576 106.452 53.444 106.115 53.18C105.777 52.9013 105.609 52.542 105.609 52.102C105.609 51.6473 105.777 51.2953 106.115 51.046C106.452 50.782 106.892 50.65 107.435 50.65ZM122.981 57.316L125.995 57.184C126.552 57.184 126.992 57.316 127.315 57.58C127.652 57.8293 127.821 58.1813 127.821 58.636C127.821 59.0907 127.652 59.4573 127.315 59.736C126.992 60 126.552 60.132 125.995 60.132L122.981 60L119.659 60.132C119.116 60.132 118.661 59.956 118.295 59.604C117.943 59.252 117.767 58.7827 117.767 58.196L117.899 51.64L117.723 45.678C117.723 44.0793 118.28 43.28 119.395 43.28C120.509 43.28 121.067 44.0793 121.067 45.678L120.891 51.64C120.891 52.388 120.942 54.2653 121.045 57.272C121.807 57.3013 122.453 57.316 122.981 57.316ZM137.605 57.558C138.91 57.558 139.995 56.9713 140.861 55.798C141.726 54.6247 142.159 53.268 142.159 51.728C142.159 50.1733 141.726 48.824 140.861 47.68C140.01 46.5213 138.925 45.942 137.605 45.942C136.299 45.942 135.214 46.5213 134.349 47.68C133.498 48.824 133.073 50.1733 133.073 51.728C133.073 53.268 133.505 54.6247 134.37 55.798C135.236 56.9713 136.314 57.558 137.605 57.558ZM137.627 43.17C139.812 43.17 141.631 44.006 143.083 45.678C144.549 47.3353 145.283 49.3593 145.283 51.75C145.283 54.126 144.549 56.15 143.083 57.822C141.616 59.494 139.79 60.33 137.605 60.33C135.434 60.33 133.615 59.494 132.149 57.822C130.682 56.15 129.949 54.126 129.949 51.75C129.949 49.3593 130.682 47.3353 132.149 45.678C133.63 44.006 135.456 43.17 137.627 43.17ZM161.106 45.656L160.886 54.368C160.886 56.0107 160.358 57.4187 159.302 58.592C158.26 59.7507 156.772 60.33 154.836 60.33C152.9 60.33 151.404 59.7507 150.348 58.592C149.306 57.4333 148.786 56.0327 148.786 54.39L148.566 45.678C148.566 44.0793 149.123 43.28 150.238 43.28C151.352 43.28 151.91 44.0793 151.91 45.678L151.756 52.74C151.756 55.072 152.269 56.5533 153.296 57.184C153.721 57.4333 154.234 57.558 154.836 57.558C155.452 57.558 155.965 57.4333 156.376 57.184C156.801 56.92 157.116 56.5533 157.322 56.084C157.718 55.204 157.916 54.082 157.916 52.718L157.762 45.656C157.762 44.0573 158.319 43.258 159.434 43.258C160.548 43.258 161.106 44.0573 161.106 45.656Z" fill="#231F20"/>
</svg>
