<svg width="64" height="64" viewBox="0 0 64 64" fill="none" xmlns="http://www.w3.org/2000/svg">
<g clip-path="url(#clip0_6_405)">
<path d="M50.9689 40.4829C51.7082 39.2099 52.2516 37.8348 52.5855 36.4071C53.5304 36.7619 54.5349 36.9472 55.546 36.9472C60.2076 36.9472 64 33.1547 64 28.4931V23.4834C64 18.8218 60.2076 15.0293 55.546 15.0293C54.6757 15.0293 53.8073 15.1672 52.9785 15.4324V12.9628C52.9785 11.3399 51.6581 10.0196 50.0352 10.0196H13.9648C12.3419 10.0196 11.0215 11.3399 11.0215 12.9628V33.0019C11.0215 35.6325 11.7164 38.2194 13.0311 40.4829C13.8126 41.8286 14.8029 43.0446 15.955 44.0861H0.939335C0.420571 44.0861 0 44.5067 0 45.0254C0 47.7533 2.21933 49.9726 4.94716 49.9726H13.116C13.5562 52.2527 15.5659 53.9804 17.9726 53.9804H46.0274C48.4341 53.9804 50.4438 52.2527 50.884 49.9726H59.0528C61.7807 49.9726 64 47.7533 64 45.0254C64 44.5067 63.5794 44.0861 63.0607 44.0861H48.045C49.1971 43.0447 50.1874 41.8287 50.9689 40.4829ZM52.9785 23.4834C52.9785 22.0676 54.1302 20.9158 55.546 20.9158C56.9618 20.9158 58.1135 22.0676 58.1135 23.4834V28.4931C58.1135 29.9089 56.9618 31.0607 55.546 31.0607C54.1302 31.0607 52.9785 29.9089 52.9785 28.4931V23.4834ZM55.546 16.908C59.1717 16.908 62.1213 19.8577 62.1213 23.4834V28.4931C62.1213 32.1188 59.1717 35.0685 55.546 35.0685C54.6366 35.0685 53.7344 34.8731 52.9022 34.5055C52.9525 34.0072 52.9785 33.5054 52.9785 33.0019V32.1196C53.7043 32.635 54.59 32.9393 55.546 32.9393C57.9977 32.9393 59.9922 30.9448 59.9922 28.4931V23.4834C59.9922 21.0317 57.9977 19.0372 55.546 19.0372C54.59 19.0372 53.7043 19.3415 52.9785 19.8569V17.436C53.7914 17.0872 54.6522 16.908 55.546 16.908ZM46.0274 52.1018H17.9726C16.6081 52.1018 15.4488 51.2066 15.0511 49.9726H48.9489C48.5512 51.2066 47.3919 52.1018 46.0274 52.1018ZM59.0528 48.0939H50.0352H13.9648H4.94716C3.58262 48.0939 2.42336 47.1988 2.02571 45.9648H45.2088C45.2094 45.9648 45.2101 45.9649 45.2107 45.9649C45.2113 45.9649 45.2119 45.9648 45.2126 45.9648H61.9743C61.5766 47.1988 60.4174 48.0939 59.0528 48.0939ZM19.0582 44.0861C15.1979 41.6713 12.9002 37.5475 12.9002 33.0019V12.9628C12.9002 12.3758 13.3778 11.8982 13.9648 11.8982H50.0352C50.6222 11.8982 51.0998 12.3758 51.0998 12.9628V16.8312C51.0998 16.8331 51.0998 16.835 51.0998 16.8369V23.4834V28.4931V33.0019C51.0998 33.6209 51.0558 34.2316 50.9726 34.8316C50.9595 34.8859 50.9518 34.9406 50.9486 34.9953C50.3814 38.7349 48.2284 42.03 44.9417 44.086H19.0582V44.0861Z" fill="#231F20"/>
<path d="M48.0313 17.91C48.55 17.91 48.9706 17.4894 48.9706 16.9707V14.9667C48.9706 14.448 48.55 14.0274 48.0313 14.0274C47.5125 14.0274 47.0919 14.448 47.0919 14.9667V16.9707C47.0919 17.4894 47.5125 17.91 48.0313 17.91Z" fill="#231F20"/>
<path d="M48.9706 29.9961V20.9785C48.9706 20.4597 48.55 20.0391 48.0313 20.0391C47.5125 20.0391 47.0919 20.4597 47.0919 20.9785V29.9961C47.0919 30.5148 47.5125 30.9354 48.0313 30.9354C48.55 30.9354 48.9706 30.5148 48.9706 29.9961Z" fill="#231F20"/>
<path d="M15.9686 29.9331C16.4874 29.9331 16.908 29.5125 16.908 28.9937V26.9905C16.908 26.4717 16.4874 26.0511 15.9686 26.0511C15.4499 26.0511 15.0293 26.4717 15.0293 26.9905V28.9937C15.0293 29.5125 15.4499 29.9331 15.9686 29.9331Z" fill="#231F20"/>
<path d="M20.559 40.2638C18.2387 38.5388 16.908 35.892 16.908 33.002C16.908 32.4832 16.4874 32.0626 15.9686 32.0626C15.4499 32.0626 15.0293 32.4832 15.0293 33.002C15.0293 36.492 16.6363 39.6884 19.4382 41.7715C19.6065 41.8967 19.803 41.9569 19.9979 41.9569C20.2848 41.9569 20.5681 41.8259 20.7525 41.578C21.062 41.1616 20.9754 40.5732 20.559 40.2638Z" fill="#231F20"/>
</g>
<defs>
<clipPath id="clip0_6_405">
<rect width="64" height="64" fill="white"/>
</clipPath>
</defs>
</svg>
