<svg width="17" height="20" viewBox="0 0 17 20" fill="none" xmlns="http://www.w3.org/2000/svg">
<path d="M15.3793 9.38814C15.3793 9.38814 14.5932 9.24522 13.5213 9.31668C13.557 9.31668 13.557 9.31668 13.5928 9.31668C14.2002 7.74455 13.9143 5.9223 13.9143 5.9223C13.9143 5.9223 12.6638 5.74365 11.3418 5.99376L11.2346 5.88657C11.2346 5.85084 11.2346 5.85084 11.2346 5.81511C11.2346 2.99242 8.05458 0.705688 8.05458 0.705688C8.05458 0.705688 7.19705 1.34883 6.33953 2.34928C6.83975 1.84906 7.44717 1.45602 8.12604 1.20591L8.16177 9.35241C8.16177 9.35241 7.8402 8.88791 7.37571 8.2805C7.87593 9.74544 7.51863 11.4605 7.51863 11.4605C6.98267 7.9232 2.73078 6.56545 2.73078 6.56545C4.19572 6.24388 5.23189 6.31534 5.9465 6.67264C5.55346 6.31534 5.19616 6.06522 4.91032 6.06522C4.7674 6.06522 4.69594 5.99376 4.62448 5.88657L4.48156 5.9223C3.26673 5.74365 2.19482 5.9223 2.19482 5.9223C2.19482 5.9223 1.98044 7.24432 2.30201 8.60207L2.4092 9.35241C1.44449 9.31668 0.729882 9.42387 0.729882 9.42387C0.729882 9.42387 0.122468 13.2827 2.08763 15.2836C4.05279 17.2845 7.94739 16.6414 7.94739 16.6414C7.94739 16.6414 8.05458 15.9268 8.01885 14.9621C7.98312 15.9268 8.09031 16.6414 8.09031 16.6414C8.09031 16.6414 11.9492 17.2488 13.9501 15.2836C15.951 13.3185 15.3793 9.38814 15.3793 9.38814ZM7.66155 16.1769C6.6611 10.8531 1.19438 9.88836 1.19438 9.88836C8.87638 8.45915 7.66155 16.1769 7.66155 16.1769ZM13.5213 6.27961C8.76918 8.17331 8.51907 11.389 8.51907 11.389C7.62582 4.45736 13.5213 6.27961 13.5213 6.27961ZM8.41188 15.891C8.16177 7.63735 15.0577 9.88836 15.0577 9.88836C9.48379 11.1032 8.41188 15.891 8.41188 15.891Z" fill="#F39200"/>
<path d="M6.58969 17.356C5.16048 17.356 3.0524 17.1059 1.65892 15.7124C-0.556356 13.4971 0.0867883 9.45962 0.0867883 9.28096C0.122519 8.99512 0.3369 8.78074 0.622742 8.74501C0.801393 8.70928 4.83891 8.10187 7.05418 10.3171C9.26946 12.5324 8.62631 16.5699 8.62631 16.7486C8.59058 17.0344 8.3762 17.2488 8.09036 17.2845C8.0189 17.2845 7.41149 17.356 6.58969 17.356ZM1.33735 9.99557C1.26589 11.0317 1.23016 13.4614 2.5879 14.7834C3.90992 16.1054 6.33958 16.1054 7.37576 16.034C7.44722 14.9978 7.48295 12.5681 6.1252 11.2461C4.76745 9.88838 2.37352 9.88838 1.33735 9.99557Z" fill="#231F20"/>
<path d="M9.55531 17.3559C8.73352 17.3559 8.12611 17.2487 8.05465 17.2487C7.7688 17.213 7.55442 16.9986 7.51869 16.7128C7.48296 16.5341 6.87555 12.4966 9.09082 10.2814C11.3061 8.06608 15.3436 8.70922 15.5223 8.70922C15.8081 8.74495 16.0225 8.95934 16.0582 9.24518C16.0939 9.42383 16.7014 13.4613 14.4861 15.6766C13.0926 17.1058 10.9488 17.3559 9.55531 17.3559ZM8.73352 15.9982C9.7697 16.0697 12.1994 16.1054 13.5214 14.7476C14.8434 13.4256 14.8434 10.996 14.7719 9.95978C13.7358 9.88832 11.3061 9.85259 9.98408 11.2103C8.66206 12.5681 8.66206 14.962 8.73352 15.9982Z" fill="#231F20"/>
<path d="M8.80496 12.3895C8.34047 12.3538 8.05463 12.318 8.0189 12.318C7.73305 12.2823 7.51867 12.0679 7.48294 11.7821C7.44721 11.6392 6.94699 8.35197 8.76923 6.52973C10.5915 4.70749 13.8787 5.24344 14.0216 5.24344C14.3074 5.27917 14.5218 5.49355 14.5575 5.77939C14.5575 5.85085 14.8791 7.81602 14.236 9.53107C14.1288 9.78118 13.9144 9.95983 13.6285 9.95983C12.5209 9.99556 10.9488 10.2457 9.98406 11.2104C9.76968 11.4248 9.5553 11.7106 9.37664 12.0322C9.26945 12.2466 9.05507 12.3895 8.80496 12.3895ZM12.771 6.45827C11.842 6.45827 10.4843 6.60119 9.69822 7.42299C8.87642 8.24478 8.69777 9.63826 8.7335 10.6387C8.84069 10.4958 8.94788 10.3886 9.05507 10.2457C10.1984 9.10231 11.8063 8.745 13.1283 8.63781C13.3427 7.81602 13.3427 6.99422 13.307 6.45827C13.164 6.494 12.9854 6.45827 12.771 6.45827Z" fill="#231F20"/>
<path d="M7.3043 12.3895C7.05419 12.3895 6.83981 12.2466 6.73262 12.0322C6.55397 11.7106 6.37532 11.4248 6.1252 11.2104C5.16049 10.2457 3.62409 9.99556 2.48072 9.95983C2.23061 9.95983 1.9805 9.78118 1.87331 9.53107C1.23016 7.81602 1.516 5.88658 1.55174 5.77939C1.58747 5.49355 1.80185 5.27917 2.08769 5.24344C2.23061 5.20771 5.51779 4.70749 7.34003 6.52973C9.16228 8.35197 8.62632 11.6392 8.62632 11.7821C8.59059 12.0679 8.37621 12.2823 8.09037 12.318C8.09037 12.318 7.7688 12.3538 7.3043 12.3895ZM3.01667 8.67354C4.30296 8.78073 5.94655 9.17377 7.08992 10.2814C7.19711 10.3886 7.3043 10.5315 7.41149 10.6744C7.41149 9.74545 7.3043 8.31624 6.44678 7.45871C5.44633 6.45827 3.69555 6.45827 2.83802 6.494C2.80229 6.99422 2.80229 7.85175 3.01667 8.67354Z" fill="#231F20"/>
<path d="M8.05462 11.5319C7.9117 11.5319 7.80451 11.4962 7.69732 11.4247C7.51866 11.2818 7.37574 11.0674 7.41147 10.8531C7.4472 9.9598 7.37574 8.35194 6.44676 7.45869C6.05372 7.06565 5.48204 6.77981 4.76744 6.63689C4.48159 6.56543 4.26721 6.31532 4.26721 6.02948V5.95802C4.26721 5.88656 4.26721 5.85083 4.26721 5.77936C4.26721 2.67083 7.59012 0.241179 7.69732 0.133988C7.9117 -0.0446628 8.23327 -0.0446628 8.48338 0.133988C8.6263 0.241179 11.9135 2.67083 11.9135 5.77936C11.9135 5.85083 11.9135 5.88656 11.9135 5.95802V6.02948C11.9135 6.31532 11.6991 6.56543 11.4133 6.63689C10.6987 6.77981 10.127 7.06565 9.73394 7.45869C8.80495 8.38767 8.73349 9.99553 8.76922 10.8531C8.76922 11.0674 8.66203 11.2818 8.51911 11.4247C8.34046 11.4962 8.19754 11.5319 8.05462 11.5319ZM5.5535 5.45779C6.26811 5.67217 6.87552 6.02948 7.34001 6.49397C7.62585 6.77981 7.87597 7.10138 8.05462 7.45869C8.23327 7.10138 8.48338 6.77981 8.76922 6.49397C9.23372 6.02948 9.84113 5.67217 10.5557 5.45779C10.3771 3.67128 8.80495 2.13488 8.05462 1.49174C7.30428 2.13488 5.73215 3.70701 5.5535 5.45779Z" fill="#231F20"/>
<path d="M8.12605 20C7.76875 20 7.48291 19.7142 7.48291 19.3569V11.6749C7.48291 11.3176 7.76875 11.0317 8.12605 11.0317C8.48336 11.0317 8.7692 11.3176 8.7692 11.6749V19.3569C8.80493 19.6785 8.48336 20 8.12605 20Z" fill="#231F20"/>
<path d="M8.05459 9.2452C7.9474 9.2452 7.84021 9.13801 7.84021 9.03082V8.60206C7.84021 8.49487 7.9474 8.38768 8.05459 8.38768C8.16178 8.38768 8.26897 8.49487 8.26897 8.60206V9.03082C8.26897 9.13801 8.19751 9.2452 8.05459 9.2452ZM8.05459 7.92318C7.9474 7.92318 7.84021 7.81599 7.84021 7.7088C7.84021 7.60161 7.9474 7.49442 8.05459 7.49442C8.16178 7.49442 8.26897 7.60161 8.26897 7.7088C8.26897 7.81599 8.19751 7.92318 8.05459 7.92318ZM8.05459 6.60117C7.9474 6.60117 7.84021 6.49398 7.84021 6.38678V5.95802C7.84021 5.85083 7.9474 5.74364 8.05459 5.74364C8.16178 5.74364 8.26897 5.85083 8.26897 5.95802V6.38678C8.26897 6.49398 8.19751 6.60117 8.05459 6.60117ZM8.05459 5.27915C7.9474 5.27915 7.84021 5.17196 7.84021 5.06477C7.84021 4.95758 7.9474 4.85038 8.05459 4.85038C8.16178 4.85038 8.26897 4.95758 8.26897 5.06477C8.26897 5.20769 8.19751 5.27915 8.05459 5.27915ZM8.05459 3.95713C7.9474 3.95713 7.84021 3.84994 7.84021 3.74275V3.31399C7.84021 3.20679 7.9474 3.0996 8.05459 3.0996C8.16178 3.0996 8.26897 3.20679 8.26897 3.31399V3.74275C8.26897 3.88567 8.19751 3.95713 8.05459 3.95713ZM8.05459 2.63511C7.9474 2.63511 7.84021 2.52792 7.84021 2.42073C7.84021 2.31354 7.9474 2.20635 8.05459 2.20635C8.16178 2.20635 8.26897 2.31354 8.26897 2.42073C8.26897 2.56365 8.19751 2.63511 8.05459 2.63511ZM8.05459 1.31309C7.9474 1.31309 7.84021 1.2059 7.84021 1.09871V0.669947C7.84021 0.562757 7.9474 0.455566 8.05459 0.455566C8.16178 0.455566 8.26897 0.562757 8.26897 0.669947V1.09871C8.26897 1.24163 8.19751 1.31309 8.05459 1.31309Z" fill="#231F20"/>
</svg>
